<svg id="svg" version="1.1" xmlns="http://www.w3.org/2000/svg" xmlns:xlink="http://www.w3.org/1999/xlink" width="400" height="400" viewBox="0, 0, 400,400"><g id="svgg"><path id="path0" d="M94.000 150.351 C 94.000 154.465,93.321 154.123,105.200 156.000 C 110.676 156.865,110.964 157.658,109.626 168.200 C 109.187 171.660,108.633 176.222,107.998 181.600 C 107.778 183.470,107.418 186.440,107.200 188.200 C 106.982 189.960,106.622 192.930,106.400 194.800 C 106.178 196.670,105.818 199.640,105.600 201.400 C 105.382 203.160,105.022 206.130,104.802 208.000 C 104.581 209.870,104.225 212.840,104.012 214.600 C 103.798 216.360,103.444 219.330,103.226 221.200 C 103.008 223.070,102.636 226.130,102.400 228.000 C 102.164 229.870,101.804 232.840,101.600 234.600 C 99.949 248.823,100.556 247.893,91.840 249.562 L 86.200 250.642 86.084 254.121 L 85.969 257.600 105.584 257.600 L 125.200 257.600 125.200 254.449 C 125.200 250.521,125.480 250.719,118.400 249.635 C 110.123 248.366,110.800 248.663,110.800 246.303 C 110.800 245.197,110.972 243.191,111.182 241.846 C 111.393 240.501,111.760 237.600,111.998 235.400 C 112.236 233.200,112.597 230.050,112.800 228.400 C 113.002 226.750,113.363 223.600,113.600 221.400 C 113.837 219.200,114.196 216.050,114.397 214.400 C 114.996 209.485,115.493 205.161,117.803 184.800 C 120.796 158.410,120.382 161.218,121.121 162.331 C 121.568 163.004,151.581 251.998,151.598 252.700 C 151.599 252.755,154.190 252.800,157.355 252.800 L 163.109 252.800 163.322 251.700 C 163.439 251.095,163.713 249.970,163.931 249.200 C 168.103 234.485,173.296 216.370,173.562 215.600 C 173.752 215.050,174.129 213.790,174.400 212.800 C 174.671 211.810,175.031 210.550,175.200 210.000 C 175.369 209.450,175.729 208.190,176.000 207.200 C 176.271 206.210,176.631 204.950,176.800 204.400 C 176.969 203.850,177.329 202.590,177.600 201.600 C 177.871 200.610,178.231 199.350,178.400 198.800 C 178.569 198.250,178.932 196.990,179.208 196.000 C 179.483 195.010,179.864 193.660,180.055 193.000 C 180.515 191.404,187.071 168.242,187.640 166.200 C 188.988 161.363,189.598 160.885,190.055 164.308 C 190.223 165.568,190.557 167.770,190.798 169.200 C 191.226 171.748,191.579 173.988,192.370 179.200 C 192.587 180.630,192.961 182.970,193.200 184.400 C 193.439 185.830,193.799 188.080,194.000 189.400 C 194.201 190.720,194.539 192.880,194.751 194.200 C 194.963 195.520,195.691 200.110,196.367 204.400 C 197.043 208.690,198.409 217.330,199.402 223.600 C 200.394 229.870,201.398 236.260,201.632 237.800 C 201.866 239.340,202.232 241.680,202.446 243.000 C 203.455 249.225,204.425 248.198,196.200 249.616 C 189.343 250.799,190.000 250.310,190.000 254.227 L 190.000 257.600 211.400 257.600 L 232.800 257.600 232.800 254.227 C 232.800 250.323,233.388 250.793,227.000 249.596 C 218.409 247.985,219.060 249.068,216.414 232.000 C 215.954 229.030,215.217 224.350,214.776 221.600 C 214.336 218.850,213.794 215.430,213.572 214.000 C 213.350 212.570,213.003 210.410,212.800 209.200 C 212.597 207.990,212.235 205.740,211.995 204.200 C 211.368 200.173,210.793 196.527,210.385 194.000 C 210.190 192.790,209.830 190.540,209.585 189.000 C 209.340 187.460,208.980 185.210,208.785 184.000 C 208.590 182.790,208.230 180.540,207.985 179.000 C 207.740 177.460,207.380 175.210,207.185 174.000 C 206.990 172.790,206.632 170.540,206.391 169.000 C 206.149 167.460,205.782 165.331,205.576 164.269 C 204.439 158.428,205.659 156.536,211.000 155.862 C 212.769 155.639,219.286 154.516,220.700 154.191 C 221.546 153.997,221.600 153.782,221.600 150.592 L 221.600 147.200 202.300 147.203 L 183.000 147.207 180.236 157.103 C 178.716 162.547,177.138 168.080,176.730 169.400 C 176.322 170.720,175.790 172.520,175.548 173.400 C 175.306 174.280,174.969 175.450,174.800 176.000 C 174.631 176.550,174.271 177.810,174.000 178.800 C 173.729 179.790,173.364 181.050,173.190 181.600 C 173.016 182.150,169.942 192.995,166.360 205.700 C 160.195 227.568,159.232 230.386,158.631 228.300 C 158.434 227.615,153.298 211.563,150.152 201.800 C 148.735 197.400,146.662 190.920,145.545 187.400 C 144.428 183.880,143.373 180.640,143.201 180.200 C 143.028 179.760,141.792 175.980,140.454 171.800 C 139.117 167.620,136.847 160.589,135.411 156.176 C 133.975 151.763,132.800 147.938,132.800 147.676 C 132.800 147.314,128.139 147.200,113.400 147.200 L 94.000 147.200 94.000 150.351 M238.484 150.670 L 238.600 154.141 244.000 155.208 C 250.787 156.548,251.203 156.686,252.300 157.957 L 253.199 159.000 253.200 202.664 L 253.200 246.329 252.002 247.337 C 250.549 248.560,250.572 248.552,244.600 249.600 C 237.741 250.803,238.400 250.311,238.400 254.229 L 238.400 257.604 279.500 257.502 L 320.600 257.400 320.850 255.800 C 320.988 254.920,321.314 252.850,321.574 251.200 C 322.548 245.031,323.400 234.756,323.400 229.185 C 323.400 228.983,316.124 228.150,315.957 228.333 C 315.823 228.480,314.669 231.660,313.392 235.400 C 310.359 244.288,309.928 245.252,308.434 246.510 C 305.748 248.770,300.870 249.271,283.000 249.119 L 269.000 249.000 268.897 227.308 L 268.793 205.617 269.797 205.365 C 270.349 205.226,275.796 205.313,281.901 205.559 C 288.005 205.804,295.385 206.003,298.300 206.002 L 303.600 206.000 303.600 200.745 L 303.600 195.489 296.900 195.764 C 276.968 196.583,269.796 196.729,269.308 196.323 C 268.910 195.993,268.800 191.512,268.800 175.565 L 268.800 155.228 269.689 154.752 C 270.352 154.398,273.440 154.345,281.789 154.545 C 297.679 154.927,301.592 155.535,304.210 158.030 C 305.338 159.104,305.667 159.921,306.822 164.500 C 307.030 165.325,307.374 166.675,307.586 167.500 C 307.798 168.325,308.221 170.080,308.526 171.400 L 309.079 173.800 312.881 173.914 L 316.682 174.028 316.938 171.314 C 317.262 167.880,317.270 149.303,316.948 148.100 L 316.707 147.200 277.538 147.200 L 238.369 147.200 238.484 150.670 " stroke="none" fill="#f7f7f7" fill-rule="evenodd"></path><path id="path1" d="M93.600 136.000 C 93.600 136.220,92.880 136.400,92.000 136.400 C 91.120 136.400,90.400 136.580,90.400 136.800 C 90.400 137.020,90.040 137.200,89.600 137.200 C 89.160 137.200,88.800 137.380,88.800 137.600 C 88.800 137.820,88.522 138.000,88.182 138.000 C 87.426 138.000,85.600 139.763,85.600 140.494 C 85.600 140.785,85.240 141.283,84.800 141.600 C 84.280 141.975,84.000 142.635,84.000 143.488 C 84.000 144.210,83.820 144.800,83.600 144.800 C 83.352 144.800,83.200 146.933,83.200 150.400 C 83.200 153.867,83.352 156.000,83.600 156.000 C 83.820 156.000,84.000 156.630,84.000 157.400 C 84.000 158.170,84.180 158.800,84.400 158.800 C 84.620 158.800,84.800 159.075,84.800 159.411 C 84.800 160.204,88.196 163.600,88.989 163.600 C 89.325 163.600,89.600 163.780,89.600 164.000 C 89.600 164.220,90.219 164.400,90.976 164.400 C 91.733 164.400,92.464 164.580,92.600 164.800 C 92.736 165.020,93.456 165.200,94.200 165.200 C 94.944 165.200,95.664 165.380,95.800 165.600 C 95.936 165.820,96.667 166.000,97.424 166.000 C 98.686 166.000,98.800 166.099,98.800 167.200 C 98.800 167.860,98.620 168.400,98.400 168.400 C 98.167 168.400,98.000 169.733,98.000 171.600 C 98.000 173.467,97.833 174.800,97.600 174.800 C 97.369 174.800,97.200 176.059,97.200 177.776 C 97.200 179.413,97.020 180.864,96.800 181.000 C 96.580 181.136,96.400 182.666,96.400 184.400 C 96.400 186.134,96.220 187.664,96.000 187.800 C 95.780 187.936,95.600 189.351,95.600 190.944 C 95.600 192.537,95.434 194.011,95.230 194.220 C 95.027 194.429,94.764 195.950,94.646 197.600 C 94.528 199.250,94.241 202.130,94.008 204.000 C 93.176 210.682,92.825 213.866,92.423 218.400 C 92.198 220.930,91.831 223.975,91.607 225.167 C 91.383 226.358,91.200 228.653,91.200 230.267 C 91.200 231.956,91.030 233.200,90.800 233.200 C 90.571 233.200,90.400 234.400,90.400 236.000 L 90.400 238.800 89.200 238.800 C 88.540 238.800,88.000 238.980,88.000 239.200 C 88.000 239.420,87.280 239.600,86.400 239.600 C 85.520 239.600,84.800 239.780,84.800 240.000 C 84.800 240.220,83.900 240.400,82.800 240.400 C 81.700 240.400,80.800 240.550,80.800 240.732 C 80.800 240.915,80.305 241.312,79.700 241.615 C 75.972 243.480,75.015 246.058,75.027 254.200 C 75.034 259.314,75.170 260.892,75.704 262.052 C 76.524 263.837,79.310 266.800,80.169 266.800 C 80.516 266.800,80.800 266.980,80.800 267.200 C 80.800 267.420,81.145 267.600,81.567 267.600 C 81.988 267.600,82.408 267.825,82.500 268.100 C 82.631 268.492,87.569 268.600,105.400 268.600 C 123.231 268.600,128.169 268.492,128.300 268.100 C 128.392 267.825,128.812 267.600,129.233 267.600 C 129.655 267.600,130.000 267.420,130.000 267.200 C 130.000 266.980,130.275 266.800,130.611 266.800 C 131.404 266.800,134.800 263.404,134.800 262.611 C 134.800 262.275,134.980 262.000,135.200 262.000 C 135.420 262.000,135.600 261.280,135.600 260.400 C 135.600 259.520,135.780 258.800,136.000 258.800 C 136.243 258.800,136.400 257.000,136.400 254.200 C 136.400 251.400,136.243 249.600,136.000 249.600 C 135.780 249.600,135.600 248.880,135.600 248.000 C 135.600 247.120,135.420 246.400,135.200 246.400 C 134.980 246.400,134.800 246.040,134.800 245.600 C 134.800 245.160,134.664 244.800,134.498 244.800 C 134.331 244.800,133.972 244.295,133.698 243.677 C 133.396 242.993,132.576 242.279,131.601 241.848 C 130.720 241.460,130.000 240.975,130.000 240.771 C 130.000 240.567,129.100 240.400,128.000 240.400 C 126.900 240.400,126.000 240.220,126.000 240.000 C 126.000 239.780,125.325 239.600,124.500 239.600 L 123.000 239.601 123.277 236.300 C 123.430 234.485,123.739 231.290,123.965 229.200 C 124.191 227.110,124.548 223.780,124.759 221.800 C 124.970 219.820,125.156 217.004,125.172 215.543 C 125.192 213.652,125.362 212.823,125.761 212.670 C 126.531 212.375,126.800 212.735,126.800 214.067 C 126.800 214.690,126.980 215.200,127.200 215.200 C 127.420 215.200,127.600 215.740,127.600 216.400 C 127.600 217.060,127.780 217.600,128.000 217.600 C 128.220 217.600,128.400 218.039,128.400 218.576 C 128.400 219.113,128.580 219.664,128.800 219.800 C 129.020 219.936,129.200 220.476,129.200 221.000 C 129.200 221.524,129.380 222.064,129.600 222.200 C 129.820 222.336,130.000 222.887,130.000 223.424 C 130.000 223.961,130.180 224.400,130.400 224.400 C 130.620 224.400,130.800 224.940,130.800 225.600 C 130.800 226.260,130.980 226.800,131.200 226.800 C 131.420 226.800,131.600 227.340,131.600 228.000 C 131.600 228.660,131.780 229.200,132.000 229.200 C 132.220 229.200,132.400 229.740,132.400 230.400 C 132.400 231.060,132.580 231.600,132.800 231.600 C 133.020 231.600,133.200 232.140,133.200 232.800 C 133.200 233.460,133.380 234.000,133.600 234.000 C 133.820 234.000,134.000 234.540,134.000 235.200 C 134.000 235.860,134.180 236.400,134.400 236.400 C 134.620 236.400,134.800 236.839,134.800 237.376 C 134.800 237.913,134.980 238.464,135.200 238.600 C 135.420 238.736,135.600 239.287,135.600 239.824 C 135.600 240.361,135.780 240.800,136.000 240.800 C 136.220 240.800,136.400 241.340,136.400 242.000 C 136.400 242.660,136.580 243.200,136.800 243.200 C 137.020 243.200,137.200 243.740,137.200 244.400 C 137.200 245.060,137.380 245.600,137.600 245.600 C 137.820 245.600,138.000 246.140,138.000 246.800 C 138.000 247.460,138.180 248.000,138.400 248.000 C 138.620 248.000,138.800 248.540,138.800 249.200 C 138.800 249.860,138.980 250.400,139.200 250.400 C 139.420 250.400,139.600 250.940,139.600 251.600 C 139.600 252.260,139.780 252.800,140.000 252.800 C 140.220 252.800,140.400 253.239,140.400 253.776 C 140.400 254.313,140.580 254.864,140.800 255.000 C 141.020 255.136,141.200 255.614,141.200 256.062 C 141.200 257.766,144.470 262.000,145.787 262.000 C 146.124 262.000,146.400 262.180,146.400 262.400 C 146.400 262.620,146.760 262.800,147.200 262.800 C 147.640 262.800,148.000 262.980,148.000 263.200 C 148.000 263.420,148.720 263.600,149.600 263.600 C 150.480 263.600,151.200 263.780,151.200 264.000 C 151.200 264.249,153.533 264.400,157.400 264.400 C 161.267 264.400,163.600 264.249,163.600 264.000 C 163.600 263.780,164.320 263.600,165.200 263.600 C 166.080 263.600,166.800 263.420,166.800 263.200 C 166.800 262.980,167.160 262.800,167.600 262.800 C 168.040 262.800,168.400 262.620,168.400 262.400 C 168.400 262.180,168.691 262.000,169.046 262.000 C 169.793 262.000,172.400 259.297,172.400 258.522 C 172.400 258.235,172.580 258.000,172.800 258.000 C 173.020 258.000,173.200 257.638,173.200 257.195 C 173.200 256.752,173.358 256.077,173.551 255.695 C 174.168 254.473,174.754 252.260,175.032 250.100 C 175.181 248.945,175.460 248.000,175.652 248.000 C 175.843 248.000,176.000 247.280,176.000 246.400 C 176.000 245.520,176.180 244.800,176.400 244.800 C 176.620 244.800,176.800 244.260,176.800 243.600 C 176.800 242.940,176.980 242.400,177.200 242.400 C 177.420 242.400,177.600 241.770,177.600 241.000 C 177.600 240.230,177.780 239.600,178.000 239.600 C 178.220 239.600,178.400 239.060,178.400 238.400 C 178.400 237.740,178.580 237.200,178.800 237.200 C 179.020 237.200,179.200 236.480,179.200 235.600 C 179.200 234.720,179.380 234.000,179.600 234.000 C 179.820 234.000,180.000 233.460,180.000 232.800 C 180.000 232.140,180.180 231.600,180.400 231.600 C 180.620 231.600,180.800 230.880,180.800 230.000 C 180.800 229.120,180.980 228.400,181.200 228.400 C 181.420 228.400,181.600 227.860,181.600 227.200 C 181.600 226.540,181.780 226.000,182.000 226.000 C 182.220 226.000,182.400 225.370,182.400 224.600 C 182.400 223.830,182.580 223.200,182.800 223.200 C 183.020 223.200,183.200 222.660,183.200 222.000 C 183.200 221.340,183.380 220.800,183.600 220.800 C 183.820 220.800,184.000 220.080,184.000 219.200 C 184.000 218.320,184.180 217.600,184.400 217.600 C 184.620 217.600,184.800 217.060,184.800 216.400 C 184.800 215.740,184.980 215.200,185.200 215.200 C 185.420 215.200,185.600 214.480,185.600 213.600 C 185.600 212.720,185.780 212.000,186.000 212.000 C 186.220 212.000,186.400 212.540,186.400 213.200 C 186.400 213.860,186.580 214.400,186.800 214.400 C 187.022 214.400,187.200 215.467,187.200 216.800 C 187.200 218.133,187.378 219.200,187.600 219.200 C 187.826 219.200,188.000 220.333,188.000 221.800 C 188.000 223.267,188.174 224.400,188.400 224.400 C 188.622 224.400,188.800 225.467,188.800 226.800 C 188.800 228.133,188.978 229.200,189.200 229.200 C 189.422 229.200,189.600 230.267,189.600 231.600 C 189.600 232.933,189.778 234.000,190.000 234.000 C 190.225 234.000,190.400 235.122,190.400 236.567 C 190.400 238.246,190.573 239.203,190.900 239.335 C 191.175 239.446,190.815 239.551,190.100 239.568 C 189.385 239.586,188.800 239.780,188.800 240.000 C 188.800 240.220,188.080 240.400,187.200 240.400 C 186.320 240.400,185.600 240.580,185.600 240.800 C 185.600 241.020,185.322 241.200,184.983 241.200 C 184.644 241.200,184.125 241.402,183.829 241.649 C 181.678 243.448,180.800 244.408,180.800 244.960 C 180.800 245.312,180.620 245.600,180.400 245.600 C 180.180 245.600,180.000 245.924,180.000 246.320 C 180.000 246.716,179.776 247.264,179.503 247.537 C 178.795 248.245,178.795 260.865,179.503 261.101 C 179.776 261.192,180.000 261.612,180.000 262.033 C 180.000 262.455,180.180 262.800,180.400 262.800 C 180.620 262.800,180.800 263.076,180.800 263.413 C 180.800 264.209,183.391 266.800,184.187 266.800 C 184.524 266.800,184.800 266.980,184.800 267.200 C 184.800 267.420,185.145 267.600,185.567 267.600 C 185.988 267.600,186.408 267.825,186.500 268.100 C 186.745 268.835,323.255 268.835,323.500 268.100 C 323.592 267.825,324.152 267.600,324.745 267.600 C 325.365 267.600,326.069 267.260,326.400 266.800 C 326.717 266.360,327.220 266.000,327.517 266.000 C 328.213 266.000,329.200 265.013,329.200 264.317 C 329.200 264.020,329.560 263.517,330.000 263.200 C 330.557 262.798,330.800 262.165,330.800 261.112 C 330.800 260.280,330.980 259.600,331.200 259.600 C 331.420 259.600,331.600 258.801,331.600 257.824 C 331.600 256.847,331.780 255.936,332.000 255.800 C 332.220 255.664,332.400 254.573,332.400 253.376 C 332.400 252.179,332.580 251.200,332.800 251.200 C 333.033 251.200,333.200 249.867,333.200 248.000 C 333.200 246.133,333.367 244.800,333.600 244.800 C 333.842 244.800,334.000 243.075,334.000 240.424 C 334.000 237.937,334.173 235.940,334.400 235.800 C 334.621 235.664,334.800 233.870,334.800 231.800 C 334.800 229.730,334.621 227.936,334.400 227.800 C 334.180 227.664,334.000 226.933,334.000 226.176 C 334.000 225.419,333.820 224.800,333.600 224.800 C 333.380 224.800,333.200 224.525,333.200 224.189 C 333.200 223.396,329.804 220.000,329.011 220.000 C 328.675 220.000,328.400 219.820,328.400 219.600 C 328.400 219.380,328.040 219.200,327.600 219.200 C 327.160 219.200,326.800 219.020,326.800 218.800 C 326.800 218.580,326.080 218.400,325.200 218.400 C 324.320 218.400,323.600 218.220,323.600 218.000 C 323.600 217.774,322.467 217.600,321.000 217.600 C 319.533 217.600,318.400 217.426,318.400 217.200 C 318.400 216.980,317.500 216.800,316.400 216.800 C 315.300 216.800,314.400 216.980,314.400 217.200 C 314.400 217.420,313.680 217.600,312.800 217.600 C 311.920 217.600,311.200 217.780,311.200 218.000 C 311.200 218.220,310.961 218.400,310.670 218.400 C 310.378 218.400,309.843 218.715,309.479 219.100 C 307.166 221.551,306.800 222.026,306.800 222.582 C 306.800 222.922,306.620 223.200,306.400 223.200 C 306.180 223.200,306.000 223.560,306.000 224.000 C 306.000 224.440,305.820 224.800,305.600 224.800 C 305.380 224.800,305.200 225.160,305.200 225.600 C 305.200 226.040,305.020 226.400,304.800 226.400 C 304.580 226.400,304.400 226.850,304.400 227.400 C 304.400 227.950,304.220 228.400,304.000 228.400 C 303.780 228.400,303.600 228.940,303.600 229.600 C 303.600 230.260,303.420 230.800,303.200 230.800 C 302.980 230.800,302.800 231.340,302.800 232.000 C 302.800 232.660,302.620 233.200,302.400 233.200 C 302.180 233.200,302.000 233.740,302.000 234.400 C 302.000 235.060,301.820 235.600,301.600 235.600 C 301.380 235.600,301.200 236.140,301.200 236.800 L 301.200 238.000 290.600 238.000 L 280.000 238.000 280.000 227.387 L 280.000 216.773 289.900 216.952 C 295.345 217.050,300.835 217.253,302.100 217.402 C 303.662 217.587,304.400 217.534,304.400 217.237 C 304.400 216.997,304.904 216.800,305.520 216.800 C 306.736 216.800,308.792 215.984,308.797 215.500 C 308.799 215.335,309.078 215.200,309.418 215.200 C 310.174 215.200,312.000 213.437,312.000 212.706 C 312.000 212.415,312.360 211.917,312.800 211.600 C 313.270 211.261,313.600 210.565,313.600 209.912 C 313.600 209.300,313.780 208.800,314.000 208.800 C 314.253 208.800,314.400 205.933,314.400 201.000 C 314.400 196.067,314.253 193.200,314.000 193.200 C 313.780 193.200,313.600 192.610,313.600 191.888 C 313.600 191.035,313.320 190.375,312.800 190.000 C 312.360 189.683,312.000 189.180,312.000 188.883 C 312.000 188.187,311.013 187.200,310.317 187.200 C 310.020 187.200,309.517 186.840,309.200 186.400 C 308.825 185.880,308.165 185.600,307.312 185.600 C 306.590 185.600,306.000 185.420,306.000 185.200 C 306.000 184.942,301.808 184.800,294.224 184.800 C 286.804 184.800,282.356 184.948,282.200 185.200 C 282.064 185.420,281.513 185.600,280.976 185.600 L 280.000 185.600 280.000 175.800 L 280.000 166.000 287.629 166.000 C 296.130 166.000,296.400 166.079,296.400 168.571 C 296.400 169.357,296.580 170.000,296.800 170.000 C 297.020 170.000,297.200 170.619,297.200 171.376 C 297.200 172.133,297.380 172.864,297.600 173.000 C 297.820 173.136,298.000 173.867,298.000 174.624 C 298.000 175.381,298.180 176.000,298.400 176.000 C 298.620 176.000,298.800 176.654,298.800 177.453 C 298.800 178.322,299.082 179.169,299.500 179.559 C 299.885 179.918,300.392 180.557,300.627 180.979 C 300.861 181.401,301.399 181.939,301.821 182.173 C 302.243 182.408,302.882 182.915,303.241 183.300 C 303.631 183.718,304.478 184.000,305.347 184.000 C 306.146 184.000,306.800 184.180,306.800 184.400 C 306.800 184.649,309.133 184.800,313.000 184.800 C 316.867 184.800,319.200 184.649,319.200 184.400 C 319.200 184.180,319.880 184.000,320.712 184.000 C 321.765 184.000,322.398 183.757,322.800 183.200 C 323.117 182.760,323.530 182.400,323.717 182.400 C 324.246 182.400,325.200 181.317,325.200 180.717 C 325.200 180.420,325.560 179.917,326.000 179.600 C 326.557 179.198,326.800 178.565,326.800 177.512 C 326.800 176.680,326.980 176.000,327.200 176.000 C 327.426 176.000,327.600 174.867,327.600 173.400 C 327.600 171.933,327.774 170.800,328.000 170.800 C 328.257 170.800,328.400 166.733,328.400 159.400 C 328.400 152.067,328.257 148.000,328.000 148.000 C 327.780 148.000,327.600 147.100,327.600 146.000 C 327.600 144.900,327.420 144.000,327.200 144.000 C 326.980 144.000,326.800 143.550,326.800 143.000 C 326.800 142.450,326.620 142.000,326.400 142.000 C 326.180 142.000,326.000 141.725,326.000 141.389 C 326.000 140.608,323.642 138.000,322.936 138.000 C 322.641 138.000,322.400 137.820,322.400 137.600 C 322.400 137.380,322.040 137.200,321.600 137.200 C 321.160 137.200,320.800 137.020,320.800 136.800 C 320.800 136.580,320.080 136.400,319.200 136.400 C 318.320 136.400,317.600 136.220,317.600 136.000 C 317.600 135.447,237.742 135.447,237.400 136.000 C 237.264 136.220,236.443 136.400,235.576 136.400 C 234.709 136.400,234.000 136.580,234.000 136.800 C 234.000 137.020,233.640 137.200,233.200 137.200 C 232.760 137.200,232.400 137.380,232.400 137.600 C 232.400 137.820,232.106 138.000,231.747 138.000 C 231.388 138.000,230.758 138.388,230.347 138.861 L 229.600 139.722 228.853 138.861 C 228.442 138.388,227.812 138.000,227.453 138.000 C 227.094 138.000,226.800 137.820,226.800 137.600 C 226.800 137.380,226.440 137.200,226.000 137.200 C 225.560 137.200,225.200 137.020,225.200 136.800 C 225.200 136.580,224.581 136.400,223.824 136.400 C 223.067 136.400,222.336 136.220,222.200 136.000 C 222.041 135.742,214.929 135.600,202.176 135.600 C 189.259 135.600,182.400 135.739,182.400 136.000 C 182.400 136.220,181.680 136.400,180.800 136.400 C 179.920 136.400,179.200 136.580,179.200 136.800 C 179.200 137.020,178.840 137.200,178.400 137.200 C 177.960 137.200,177.600 137.380,177.600 137.600 C 177.600 137.820,177.285 138.001,176.900 138.001 C 176.515 138.002,175.840 138.541,175.400 139.200 C 174.960 139.859,174.465 140.398,174.300 140.399 C 174.135 140.399,174.000 140.760,174.000 141.200 C 174.000 141.640,173.820 142.000,173.600 142.000 C 173.380 142.000,173.200 142.270,173.200 142.600 C 173.200 142.930,173.020 143.200,172.800 143.200 C 172.580 143.200,172.400 143.920,172.400 144.800 C 172.400 145.680,172.220 146.400,172.000 146.400 C 171.780 146.400,171.600 146.940,171.600 147.600 C 171.600 148.260,171.420 148.800,171.200 148.800 C 170.980 148.800,170.800 149.520,170.800 150.400 C 170.800 151.280,170.620 152.000,170.400 152.000 C 170.180 152.000,170.000 152.540,170.000 153.200 C 170.000 153.860,169.820 154.400,169.600 154.400 C 169.380 154.400,169.200 155.120,169.200 156.000 C 169.200 156.880,169.020 157.600,168.800 157.600 C 168.580 157.600,168.400 158.039,168.400 158.576 C 168.400 159.113,168.220 159.664,168.000 159.800 C 167.780 159.936,167.600 160.667,167.600 161.424 C 167.600 162.181,167.420 162.800,167.200 162.800 C 166.980 162.800,166.800 163.340,166.800 164.000 C 166.800 164.660,166.620 165.200,166.400 165.200 C 166.180 165.200,166.000 165.920,166.000 166.800 C 166.000 167.680,165.820 168.400,165.600 168.400 C 165.380 168.400,165.200 168.940,165.200 169.600 C 165.200 170.260,165.020 170.800,164.800 170.800 C 164.580 170.800,164.400 171.520,164.400 172.400 C 164.400 173.280,164.220 174.000,164.000 174.000 C 163.780 174.000,163.600 174.540,163.600 175.200 C 163.600 175.860,163.420 176.400,163.200 176.400 C 162.980 176.400,162.800 177.030,162.800 177.800 C 162.800 178.570,162.620 179.200,162.400 179.200 C 162.180 179.200,162.000 179.729,162.000 180.376 C 162.000 181.023,161.820 181.664,161.600 181.800 C 161.380 181.936,161.200 182.667,161.200 183.424 C 161.200 184.181,161.020 184.800,160.800 184.800 C 160.580 184.800,160.400 185.329,160.400 185.976 C 160.400 186.623,160.220 187.264,160.000 187.400 C 159.780 187.536,159.600 188.156,159.600 188.778 C 159.600 190.053,158.600 192.248,158.266 191.707 C 158.146 191.513,157.924 190.419,157.772 189.277 C 157.621 188.135,157.340 187.200,157.148 187.200 C 156.957 187.200,156.800 186.660,156.800 186.000 C 156.800 185.340,156.620 184.800,156.400 184.800 C 156.180 184.800,156.000 184.260,156.000 183.600 C 156.000 182.940,155.820 182.400,155.600 182.400 C 155.380 182.400,155.200 181.860,155.200 181.200 C 155.200 180.540,155.020 180.000,154.800 180.000 C 154.580 180.000,154.400 179.370,154.400 178.600 C 154.400 177.830,154.220 177.200,154.000 177.200 C 153.780 177.200,153.600 176.660,153.600 176.000 C 153.600 175.340,153.420 174.800,153.200 174.800 C 152.980 174.800,152.800 174.260,152.800 173.600 C 152.800 172.940,152.620 172.400,152.400 172.400 C 152.180 172.400,152.000 171.860,152.000 171.200 C 152.000 170.540,151.820 170.000,151.600 170.000 C 151.380 170.000,151.200 169.460,151.200 168.800 C 151.200 168.140,151.020 167.600,150.800 167.600 C 150.580 167.600,150.400 167.060,150.400 166.400 C 150.400 165.740,150.220 165.200,150.000 165.200 C 149.780 165.200,149.600 164.660,149.600 164.000 C 149.600 163.340,149.420 162.800,149.200 162.800 C 148.980 162.800,148.800 162.260,148.800 161.600 C 148.800 160.940,148.620 160.400,148.400 160.400 C 148.180 160.400,148.000 159.950,148.000 159.400 C 148.000 158.850,147.820 158.400,147.600 158.400 C 147.380 158.400,147.200 157.781,147.200 157.024 C 147.200 156.267,147.020 155.536,146.800 155.400 C 146.580 155.264,146.400 154.623,146.400 153.976 C 146.400 153.329,146.220 152.800,146.000 152.800 C 145.780 152.800,145.600 152.260,145.600 151.600 C 145.600 150.940,145.420 150.400,145.200 150.400 C 144.980 150.400,144.800 149.860,144.800 149.200 C 144.800 148.540,144.620 148.000,144.400 148.000 C 144.180 148.000,144.000 147.460,144.000 146.800 C 144.000 146.140,143.820 145.600,143.600 145.600 C 143.380 145.600,143.200 145.060,143.200 144.400 C 143.200 143.740,143.020 143.200,142.800 143.200 C 142.580 143.200,142.400 142.930,142.400 142.600 C 142.400 142.270,142.220 142.000,142.000 142.000 C 141.780 142.000,141.600 141.659,141.600 141.242 C 141.600 140.298,139.502 138.000,138.640 138.000 C 138.288 138.000,138.000 137.820,138.000 137.600 C 138.000 137.380,137.640 137.200,137.200 137.200 C 136.760 137.200,136.400 137.020,136.400 136.800 C 136.400 136.580,135.680 136.400,134.800 136.400 C 133.920 136.400,133.200 136.220,133.200 136.000 C 133.200 135.739,126.333 135.600,113.400 135.600 C 100.467 135.600,93.600 135.739,93.600 136.000 M132.867 147.100 C 133.192 147.485,133.690 148.610,133.975 149.600 C 134.259 150.590,134.629 151.760,134.798 152.200 C 134.966 152.640,135.864 155.430,136.793 158.400 C 137.723 161.370,138.644 164.113,138.841 164.495 C 139.039 164.877,139.200 165.541,139.200 165.971 C 139.200 166.401,139.380 166.864,139.600 167.000 C 139.820 167.136,140.000 167.676,140.000 168.200 C 140.000 168.724,140.180 169.264,140.400 169.400 C 140.620 169.536,140.800 170.076,140.800 170.600 C 140.800 171.124,140.980 171.664,141.200 171.800 C 141.420 171.936,141.600 172.566,141.600 173.200 C 141.600 173.834,141.780 174.464,142.000 174.600 C 142.220 174.736,142.400 175.276,142.400 175.800 C 142.400 176.324,142.580 176.864,142.800 177.000 C 143.020 177.136,143.200 177.676,143.200 178.200 C 143.200 178.724,143.380 179.264,143.600 179.400 C 143.820 179.536,144.000 180.076,144.000 180.600 C 144.000 181.124,144.180 181.664,144.400 181.800 C 144.620 181.936,144.800 182.399,144.800 182.829 C 144.800 183.259,144.964 183.923,145.165 184.305 C 145.366 184.687,146.547 188.240,147.789 192.200 C 153.384 210.034,154.093 212.241,154.436 212.895 C 154.636 213.277,154.800 213.941,154.800 214.371 C 154.800 214.801,154.980 215.264,155.200 215.400 C 155.420 215.536,155.600 216.076,155.600 216.600 C 155.600 217.124,155.780 217.664,156.000 217.800 C 156.220 217.936,156.400 218.476,156.400 219.000 C 156.400 219.524,156.580 220.064,156.800 220.200 C 157.020 220.336,157.200 220.966,157.200 221.600 C 157.200 222.234,157.380 222.864,157.600 223.000 C 157.820 223.136,158.000 223.676,158.000 224.200 C 158.000 224.724,158.180 225.264,158.400 225.400 C 158.620 225.536,158.800 226.081,158.800 226.611 C 158.800 227.303,158.969 227.510,159.400 227.345 C 159.738 227.215,160.000 226.619,160.000 225.981 C 160.000 225.357,160.180 224.736,160.400 224.600 C 160.620 224.464,160.800 223.834,160.800 223.200 C 160.800 222.566,160.980 221.936,161.200 221.800 C 161.420 221.664,161.600 221.034,161.600 220.400 C 161.600 219.766,161.780 219.136,162.000 219.000 C 162.220 218.864,162.400 218.234,162.400 217.600 C 162.400 216.966,162.580 216.336,162.800 216.200 C 163.020 216.064,163.200 215.434,163.200 214.800 C 163.200 214.166,163.360 213.548,163.556 213.427 C 163.751 213.306,164.005 212.621,164.119 211.904 C 164.232 211.187,164.505 209.970,164.724 209.200 C 165.263 207.303,168.287 196.590,168.845 194.600 C 169.091 193.720,169.431 192.550,169.600 192.000 C 169.769 191.450,170.129 190.190,170.400 189.200 C 170.671 188.210,171.031 186.950,171.200 186.400 C 171.369 185.850,171.732 184.590,172.008 183.600 C 172.589 181.508,173.187 179.418,173.609 178.000 C 173.773 177.450,174.126 176.190,174.393 175.200 C 174.660 174.210,175.040 173.087,175.239 172.705 C 175.438 172.323,175.600 171.569,175.600 171.029 C 175.600 170.489,175.780 169.936,176.000 169.800 C 176.220 169.664,176.400 169.171,176.400 168.705 C 176.400 167.804,177.065 165.461,177.649 164.305 C 177.842 163.923,178.000 163.306,178.000 162.934 C 178.000 162.177,178.711 159.771,179.249 158.705 C 179.442 158.323,179.600 157.657,179.600 157.224 C 179.600 156.792,179.761 156.024,179.958 155.519 C 180.155 155.013,180.540 153.790,180.812 152.800 C 181.770 149.323,182.105 148.192,182.444 147.296 L 182.786 146.392 202.293 146.496 L 221.800 146.600 221.914 150.657 L 222.027 154.713 220.514 154.945 C 219.681 155.072,217.830 155.370,216.400 155.606 C 214.970 155.842,212.900 156.134,211.800 156.254 C 210.700 156.375,209.629 156.637,209.420 156.837 C 209.211 157.037,208.658 157.200,208.192 157.200 C 206.335 157.200,204.664 161.265,205.965 162.620 C 206.165 162.829,206.431 163.990,206.556 165.200 C 206.680 166.410,206.884 168.390,207.010 169.600 C 207.136 170.810,207.401 172.160,207.600 172.600 C 207.799 173.040,208.052 174.300,208.163 175.400 C 208.274 176.500,208.553 178.525,208.782 179.900 C 209.337 183.222,209.851 186.394,210.386 189.800 C 210.628 191.340,210.987 193.590,211.183 194.800 C 211.380 196.010,211.736 198.260,211.975 199.800 C 212.215 201.340,212.574 203.590,212.773 204.800 C 212.973 206.010,213.317 208.170,213.537 209.600 C 213.758 211.030,214.034 212.740,214.152 213.400 C 214.670 216.309,217.065 231.767,217.591 235.600 C 217.848 237.470,218.225 239.651,218.429 240.446 C 218.633 241.242,218.800 242.520,218.800 243.287 C 218.800 246.701,220.515 247.751,228.600 249.288 L 233.400 250.200 233.400 254.000 L 233.400 257.800 211.500 257.903 L 189.600 258.007 189.600 254.227 C 189.600 252.148,189.754 250.352,189.942 250.236 C 190.300 250.014,195.735 248.995,199.742 248.398 C 201.031 248.206,202.154 247.979,202.240 247.893 C 202.417 247.716,202.001 244.484,200.835 237.000 C 199.124 226.011,198.768 223.713,198.355 221.000 C 198.121 219.460,197.760 217.120,197.553 215.800 C 197.346 214.480,197.007 212.320,196.800 211.000 C 196.593 209.680,196.233 207.430,196.000 206.000 C 195.163 200.865,194.768 198.167,194.567 196.200 C 194.454 195.100,194.199 193.840,194.000 193.400 C 193.801 192.960,193.540 191.655,193.419 190.500 C 193.299 189.345,193.101 187.455,192.981 186.300 C 192.860 185.145,192.599 183.840,192.400 183.400 C 192.201 182.960,191.946 181.700,191.833 180.600 C 191.626 178.575,191.178 175.532,190.392 170.800 C 190.154 169.370,189.862 167.247,189.742 166.083 C 189.513 163.861,188.400 163.672,188.400 165.854 C 188.400 166.380,188.238 167.123,188.039 167.505 C 187.840 167.887,187.460 169.010,187.193 170.000 C 186.926 170.990,186.569 172.250,186.400 172.800 C 186.231 173.350,185.892 174.520,185.646 175.400 C 184.886 178.122,180.362 194.131,179.993 195.400 C 179.802 196.060,179.455 197.275,179.223 198.100 C 178.990 198.925,178.607 200.275,178.372 201.100 C 178.137 201.925,177.853 203.050,177.742 203.600 C 177.631 204.150,177.394 204.960,177.215 205.400 C 177.037 205.840,176.670 207.010,176.399 208.000 C 176.129 208.990,175.769 210.250,175.600 210.800 C 175.431 211.350,175.074 212.610,174.807 213.600 C 174.540 214.590,174.160 215.713,173.961 216.095 C 173.762 216.477,173.600 217.094,173.600 217.466 C 173.600 218.223,172.889 220.629,172.351 221.695 C 172.158 222.077,172.000 222.694,172.000 223.066 C 172.000 223.718,171.431 225.730,170.775 227.400 C 170.602 227.840,170.369 228.650,170.258 229.200 C 170.067 230.144,169.643 231.717,168.777 234.700 C 168.570 235.415,168.238 236.585,168.039 237.300 C 166.017 244.582,164.320 250.486,163.872 251.800 L 163.327 253.400 157.521 253.510 C 150.588 253.642,151.487 254.415,148.788 246.000 C 147.624 242.370,146.520 239.229,146.336 239.020 C 146.151 238.811,146.000 238.237,146.000 237.744 C 146.000 237.251,145.820 236.736,145.600 236.600 C 145.380 236.464,145.200 235.924,145.200 235.400 C 145.200 234.876,145.020 234.336,144.800 234.200 C 144.580 234.064,144.400 233.524,144.400 233.000 C 144.400 232.476,144.220 231.936,144.000 231.800 C 143.780 231.664,143.600 231.124,143.600 230.600 C 143.600 230.076,143.420 229.536,143.200 229.400 C 142.980 229.264,142.800 228.724,142.800 228.200 C 142.800 227.676,142.620 227.136,142.400 227.000 C 142.180 226.864,142.000 226.324,142.000 225.800 C 142.000 225.276,141.820 224.736,141.600 224.600 C 141.380 224.464,141.200 223.949,141.200 223.456 C 141.200 222.963,141.053 222.389,140.873 222.180 C 140.692 221.971,138.420 215.320,135.823 207.400 C 133.226 199.480,130.944 192.687,130.751 192.305 C 130.558 191.923,130.400 191.259,130.400 190.829 C 130.400 190.399,130.220 189.936,130.000 189.800 C 129.780 189.664,129.600 189.124,129.600 188.600 C 129.600 188.076,129.420 187.536,129.200 187.400 C 128.980 187.264,128.800 186.724,128.800 186.200 C 128.800 185.676,128.656 185.158,128.479 185.049 C 128.303 184.940,127.907 183.928,127.600 182.800 C 127.293 181.672,126.897 180.660,126.721 180.551 C 126.544 180.442,126.400 179.924,126.400 179.400 C 126.400 178.876,126.220 178.336,126.000 178.200 C 125.780 178.064,125.600 177.524,125.600 177.000 C 125.600 176.476,125.420 175.936,125.200 175.800 C 124.980 175.664,124.800 175.124,124.800 174.600 C 124.800 174.076,124.620 173.536,124.400 173.400 C 124.180 173.264,124.000 172.724,124.000 172.200 C 124.000 171.676,123.820 171.136,123.600 171.000 C 123.380 170.864,123.200 170.324,123.200 169.800 C 123.200 169.276,123.020 168.736,122.800 168.600 C 122.580 168.464,122.400 167.924,122.400 167.400 C 122.400 166.876,122.220 166.336,122.000 166.200 C 121.780 166.064,121.600 165.513,121.600 164.976 C 121.600 164.439,121.423 164.000,121.208 164.000 C 120.723 164.000,120.504 165.000,120.200 168.600 C 120.070 170.140,119.803 172.750,119.606 174.400 C 119.409 176.050,119.070 179.020,118.852 181.000 C 117.862 190.001,117.351 194.514,115.163 213.600 C 114.133 222.594,113.922 224.432,113.574 227.500 C 113.368 229.315,113.015 232.375,112.790 234.300 C 112.564 236.225,112.206 239.330,111.994 241.200 C 111.783 243.070,111.500 245.254,111.366 246.053 C 111.072 247.815,111.294 247.981,114.531 248.419 C 126.508 250.040,126.066 249.810,125.915 254.361 L 125.800 257.800 105.485 257.904 L 85.171 258.007 85.285 254.104 L 85.400 250.200 89.800 249.336 C 92.220 248.860,94.857 248.360,95.659 248.225 C 99.187 247.630,99.554 246.743,100.809 235.800 C 101.289 231.620,101.843 226.850,102.040 225.200 C 102.596 220.563,103.185 215.696,103.589 212.400 C 103.791 210.750,104.152 207.780,104.392 205.800 C 105.330 198.025,105.664 195.292,106.003 192.600 C 106.197 191.060,106.556 188.090,106.800 186.000 C 107.044 183.910,107.406 180.940,107.603 179.400 C 107.801 177.860,108.155 174.980,108.391 173.000 C 109.336 165.062,109.549 163.316,109.817 161.334 C 110.064 159.497,109.990 159.158,109.148 158.282 C 108.039 157.129,107.420 156.963,99.200 155.611 C 97.990 155.412,96.280 155.101,95.400 154.919 L 93.800 154.588 93.683 151.026 C 93.619 149.066,93.659 147.224,93.771 146.932 C 94.128 146.001,132.077 146.165,132.867 147.100 M317.251 147.062 C 317.875 147.813,318.072 170.118,317.479 172.913 L 317.159 174.427 312.927 174.313 L 308.695 174.200 308.118 172.200 C 307.800 171.100,307.362 169.480,307.143 168.600 C 306.925 167.720,306.578 166.447,306.373 165.772 C 306.168 165.096,306.000 164.072,306.000 163.495 C 306.000 162.919,305.820 162.336,305.600 162.200 C 305.380 162.064,305.200 161.586,305.200 161.138 C 305.200 159.192,302.223 156.878,298.800 156.164 C 298.030 156.004,291.145 155.807,283.500 155.726 L 269.600 155.580 269.600 175.821 L 269.600 196.062 277.300 195.830 C 281.535 195.703,289.275 195.495,294.500 195.368 L 304.000 195.137 304.000 200.745 C 304.000 203.829,303.865 206.414,303.700 206.489 C 303.159 206.735,273.042 206.078,271.296 205.782 L 269.593 205.494 269.696 227.047 L 269.800 248.600 285.393 248.526 C 300.512 248.454,301.824 248.364,306.132 247.100 C 307.759 246.623,310.000 244.324,310.000 243.132 C 310.000 242.756,310.180 242.336,310.400 242.200 C 310.620 242.064,310.800 241.543,310.800 241.043 C 310.800 240.543,310.918 240.016,311.062 239.872 C 311.206 239.728,312.182 237.063,313.230 233.951 C 315.330 227.719,315.845 226.875,317.127 227.561 C 317.578 227.802,318.868 228.000,319.994 228.000 C 323.492 228.000,324.561 228.843,324.222 231.337 C 324.068 232.472,323.774 235.740,323.570 238.600 C 323.116 244.974,322.614 249.029,321.382 256.302 L 321.094 258.004 279.447 257.902 L 237.800 257.800 237.681 254.805 C 237.479 249.748,236.916 250.178,245.600 248.759 C 249.604 248.104,251.188 247.541,252.029 246.473 C 252.953 245.298,253.268 161.065,252.356 159.063 C 251.606 157.417,248.864 156.463,242.800 155.738 C 241.810 155.619,240.829 155.360,240.620 155.161 C 240.411 154.963,239.757 154.800,239.167 154.800 C 238.392 154.800,238.026 154.550,237.852 153.900 C 237.419 152.283,237.578 147.382,238.080 146.880 C 238.935 146.025,316.538 146.203,317.251 147.062 M230.400 162.000 C 230.717 162.440,231.257 162.800,231.600 162.800 C 231.943 162.800,232.483 163.160,232.800 163.600 C 233.202 164.157,233.835 164.400,234.888 164.400 C 235.720 164.400,236.400 164.580,236.400 164.800 C 236.400 165.020,237.120 165.200,238.000 165.200 C 238.880 165.200,239.600 165.380,239.600 165.600 C 239.600 165.820,240.230 166.000,241.000 166.000 L 242.400 166.000 242.400 202.400 C 242.400 238.164,242.386 238.800,241.624 238.800 C 241.197 238.800,240.736 238.980,240.600 239.200 C 240.464 239.420,239.643 239.600,238.776 239.600 C 237.909 239.600,237.200 239.780,237.200 240.000 C 237.200 240.220,236.480 240.400,235.600 240.400 C 234.720 240.400,234.000 240.220,234.000 240.000 C 234.000 239.780,233.280 239.600,232.400 239.600 C 231.520 239.600,230.800 239.420,230.800 239.200 C 230.800 238.980,230.260 238.800,229.600 238.800 C 228.447 238.800,228.400 238.731,228.400 237.024 C 228.400 236.047,228.220 235.136,228.000 235.000 C 227.780 234.864,227.600 233.683,227.600 232.376 C 227.600 231.059,227.422 230.000,227.200 230.000 C 226.980 230.000,226.800 229.010,226.800 227.800 C 226.800 226.590,226.620 225.600,226.400 225.600 C 226.175 225.600,226.000 224.475,226.000 223.024 C 226.000 221.607,225.847 220.353,225.660 220.237 C 225.473 220.121,225.200 218.314,225.052 216.219 C 224.905 214.125,224.608 211.947,224.392 211.380 C 224.177 210.812,224.000 209.470,224.000 208.398 C 224.000 207.325,223.820 206.336,223.600 206.200 C 223.380 206.064,223.200 204.919,223.200 203.656 C 223.200 202.393,223.036 201.189,222.835 200.980 C 222.635 200.771,222.361 199.520,222.227 198.200 C 222.093 196.880,221.882 194.765,221.756 193.500 C 221.631 192.235,221.365 191.200,221.164 191.200 C 220.964 191.200,220.800 190.120,220.800 188.800 C 220.800 187.480,220.635 186.400,220.434 186.400 C 220.233 186.400,219.966 185.275,219.841 183.900 C 219.255 177.452,219.104 176.400,218.764 176.400 C 218.564 176.400,218.400 175.320,218.400 174.000 C 218.400 172.667,218.222 171.600,218.000 171.600 C 217.779 171.600,217.600 170.560,217.600 169.280 C 217.600 168.004,217.384 166.744,217.120 166.480 C 216.747 166.107,216.964 166.000,218.096 166.000 C 218.897 166.000,219.664 165.820,219.800 165.600 C 219.936 165.380,220.757 165.200,221.624 165.200 C 222.491 165.200,223.200 165.020,223.200 164.800 C 223.200 164.580,223.830 164.400,224.600 164.400 C 225.370 164.400,226.000 164.220,226.000 164.000 C 226.000 163.780,226.315 163.595,226.700 163.588 C 227.085 163.581,227.850 163.047,228.400 162.400 C 229.597 160.992,229.664 160.979,230.400 162.000 " stroke="none" fill="#040404" fill-rule="evenodd"></path><path id="path2" d="M93.740 150.400 C 93.740 152.270,93.809 153.035,93.893 152.100 C 93.977 151.165,93.977 149.635,93.893 148.700 C 93.809 147.765,93.740 148.530,93.740 150.400 M221.742 150.600 C 221.741 152.580,221.808 153.440,221.892 152.512 C 221.976 151.584,221.977 149.964,221.895 148.912 C 221.812 147.860,221.743 148.620,221.742 150.600 M287.300 155.076 C 287.685 155.176,288.315 155.176,288.700 155.076 C 289.085 154.975,288.770 154.893,288.000 154.893 C 287.230 154.893,286.915 154.975,287.300 155.076 M317.750 159.400 C 317.751 161.820,317.816 162.758,317.896 161.485 C 317.976 160.212,317.975 158.232,317.894 157.085 C 317.814 155.938,317.749 156.980,317.750 159.400 M269.290 175.676 C 269.241 186.828,269.335 196.036,269.500 196.138 C 269.773 196.307,269.768 181.070,269.489 162.600 C 269.430 158.640,269.340 164.524,269.290 175.676 M311.113 174.295 C 312.276 174.376,314.076 174.376,315.113 174.293 C 316.151 174.211,315.200 174.145,313.000 174.146 C 310.800 174.147,309.951 174.214,311.113 174.295 M295.907 195.490 C 296.626 195.579,297.706 195.577,298.307 195.486 C 298.908 195.395,298.320 195.322,297.000 195.324 C 295.680 195.326,295.188 195.401,295.907 195.490 M272.905 196.287 C 273.514 196.379,274.414 196.377,274.905 196.282 C 275.397 196.187,274.900 196.111,273.800 196.114 C 272.700 196.117,272.297 196.195,272.905 196.287 M269.386 227.000 C 269.387 238.880,269.438 243.682,269.500 237.672 C 269.562 231.661,269.562 221.941,269.500 216.072 C 269.437 210.202,269.386 215.120,269.386 227.000 M278.100 205.876 C 278.485 205.976,279.115 205.976,279.500 205.876 C 279.885 205.775,279.570 205.693,278.800 205.693 C 278.030 205.693,277.715 205.775,278.100 205.876 M290.900 206.291 C 291.725 206.378,293.075 206.378,293.900 206.291 C 294.725 206.205,294.050 206.134,292.400 206.134 C 290.750 206.134,290.075 206.205,290.900 206.291 M323.293 238.400 C 323.293 239.170,323.375 239.485,323.476 239.100 C 323.576 238.715,323.576 238.085,323.476 237.700 C 323.375 237.315,323.293 237.630,323.293 238.400 M292.705 249.083 C 293.202 249.179,293.922 249.175,294.305 249.075 C 294.687 248.975,294.280 248.896,293.400 248.901 C 292.520 248.905,292.207 248.987,292.705 249.083 M189.660 254.276 C 189.627 256.078,189.735 257.637,189.900 257.739 C 190.065 257.842,190.150 256.818,190.088 255.463 C 189.900 251.322,189.723 250.831,189.660 254.276 " stroke="none" fill="#7c7c7c" fill-rule="evenodd"></path><path id="path3" d="M93.862 146.700 C 93.693 146.973,108.411 146.967,125.800 146.689 C 129.540 146.629,123.926 146.539,113.324 146.490 C 102.722 146.440,93.964 146.535,93.862 146.700 M182.382 147.234 C 182.136 147.693,182.023 148.157,182.131 148.264 C 182.239 148.372,182.447 148.083,182.593 147.623 C 182.858 146.786,182.872 146.785,202.391 146.893 C 213.134 146.952,221.840 146.865,221.738 146.700 C 221.215 145.854,182.841 146.375,182.382 147.234 M238.080 146.880 C 237.772 147.188,237.627 148.516,237.675 150.580 L 237.749 153.800 237.975 150.400 L 238.200 147.000 277.600 146.797 L 317.000 146.594 277.780 146.497 C 247.700 146.423,238.448 146.512,238.080 146.880 M317.498 151.000 C 317.615 153.200,317.775 155.075,317.855 155.167 C 318.127 155.479,317.942 150.605,317.613 148.800 C 317.394 147.597,317.356 148.326,317.498 151.000 M96.800 155.194 C 97.130 155.411,97.835 155.591,98.367 155.594 C 99.651 155.602,99.325 155.375,97.600 155.058 C 96.615 154.877,96.378 154.918,96.800 155.194 M217.400 155.200 C 216.293 155.482,216.277 155.509,217.200 155.547 C 217.750 155.569,218.470 155.413,218.800 155.200 C 219.481 154.760,219.129 154.760,217.400 155.200 M240.590 155.184 C 240.732 155.413,241.317 155.600,241.890 155.600 C 243.144 155.600,242.999 155.408,241.466 155.040 C 240.723 154.862,240.421 154.911,240.590 155.184 M269.800 155.200 C 269.637 155.464,273.746 155.577,281.876 155.533 C 290.941 155.484,293.089 155.391,290.000 155.182 C 283.357 154.733,270.081 154.745,269.800 155.200 M101.600 155.994 C 101.930 156.211,102.635 156.391,103.167 156.394 C 104.451 156.402,104.125 156.175,102.400 155.858 C 101.415 155.677,101.178 155.718,101.600 155.994 M212.600 156.000 C 211.493 156.282,211.477 156.309,212.400 156.347 C 212.950 156.369,213.670 156.213,214.000 156.000 C 214.681 155.560,214.329 155.560,212.600 156.000 M244.800 155.982 C 245.130 156.205,245.745 156.391,246.167 156.394 C 247.190 156.402,246.871 156.173,245.400 155.844 C 244.524 155.648,244.362 155.685,244.800 155.982 M297.600 155.982 C 297.930 156.205,298.545 156.391,298.967 156.394 C 299.990 156.402,299.671 156.173,298.200 155.844 C 297.324 155.648,297.162 155.685,297.600 155.982 M106.000 156.782 C 106.330 157.005,106.945 157.191,107.367 157.194 C 108.390 157.202,108.071 156.973,106.600 156.644 C 105.724 156.448,105.562 156.485,106.000 156.782 M208.200 156.800 C 207.429 157.131,207.431 157.145,208.276 157.172 C 208.758 157.187,209.264 157.020,209.400 156.800 C 209.692 156.327,209.301 156.327,208.200 156.800 M303.000 157.825 C 303.440 158.154,304.131 158.823,304.535 159.312 C 304.939 159.800,305.137 159.930,304.975 159.600 C 304.498 158.627,303.095 157.199,302.630 157.213 C 302.394 157.220,302.560 157.495,303.000 157.825 M252.272 158.600 C 252.453 159.040,252.692 178.750,252.804 202.400 L 253.007 245.400 253.089 202.600 C 253.162 164.744,253.101 159.684,252.558 158.800 C 252.221 158.250,252.092 158.160,252.272 158.600 M109.456 163.284 C 109.321 163.788,109.231 164.830,109.255 165.600 C 109.289 166.669,109.375 166.480,109.618 164.802 C 109.953 162.492,109.872 161.733,109.456 163.284 M205.863 163.680 C 206.200 165.449,206.400 165.601,206.400 164.090 C 206.400 163.407,206.223 162.738,206.006 162.604 C 205.760 162.452,205.706 162.855,205.863 163.680 M188.800 163.800 C 188.517 164.141,188.376 164.509,188.486 164.619 C 188.596 164.729,188.917 164.541,189.200 164.200 C 189.483 163.859,189.624 163.491,189.514 163.381 C 189.404 163.271,189.083 163.459,188.800 163.800 M306.006 164.033 C 306.009 164.565,306.189 165.270,306.406 165.600 C 306.682 166.022,306.723 165.785,306.542 164.800 C 306.225 163.075,305.998 162.749,306.006 164.033 M317.424 168.224 C 317.267 170.780,317.223 172.957,317.328 173.061 C 317.432 173.166,317.648 171.162,317.808 168.608 C 317.968 166.054,318.011 163.877,317.904 163.771 C 317.797 163.664,317.581 165.668,317.424 168.224 M189.606 166.233 C 189.609 167.095,189.770 168.049,189.963 168.354 C 190.178 168.693,190.232 168.149,190.104 166.954 C 189.842 164.517,189.598 164.164,189.606 166.233 M306.806 167.433 C 306.809 167.855,306.995 168.470,307.218 168.800 C 307.515 169.238,307.552 169.076,307.356 168.200 C 307.027 166.729,306.798 166.410,306.806 167.433 M206.668 168.600 C 206.971 170.577,207.202 170.914,207.194 169.367 C 207.191 168.725,207.016 167.930,206.805 167.600 C 206.545 167.191,206.501 167.510,206.668 168.600 M120.054 168.800 C 120.019 169.350,119.896 170.250,119.783 170.800 L 119.577 171.800 120.007 170.815 C 120.243 170.274,120.365 169.374,120.278 168.815 L 120.120 167.800 120.054 168.800 M108.649 169.815 C 108.512 170.173,108.422 171.216,108.450 172.133 C 108.498 173.731,108.513 173.710,108.818 171.602 C 109.147 169.334,109.085 168.681,108.649 169.815 M190.406 171.233 C 190.409 171.985,190.577 172.861,190.779 173.179 C 191.016 173.554,191.065 173.130,190.918 171.979 C 190.635 169.770,190.398 169.425,190.406 171.233 M307.606 170.633 C 307.609 171.055,307.795 171.670,308.018 172.000 C 308.315 172.438,308.352 172.276,308.156 171.400 C 307.827 169.929,307.598 169.610,307.606 170.633 M140.828 171.876 C 140.918 172.915,141.544 173.796,141.572 172.924 C 141.587 172.442,141.420 171.936,141.200 171.800 C 140.980 171.664,140.813 171.698,140.828 171.876 M207.480 173.891 C 207.790 175.900,208.000 176.061,208.000 174.290 C 208.000 173.497,207.831 172.743,207.624 172.615 C 207.399 172.476,207.341 172.991,207.480 173.891 M174.249 175.415 C 174.112 175.773,174.015 176.366,174.034 176.733 C 174.053 177.100,174.227 176.869,174.421 176.220 C 174.798 174.958,174.665 174.333,174.249 175.415 M119.249 175.800 C 119.216 176.240,119.096 177.050,118.983 177.600 L 118.777 178.600 119.206 177.619 C 119.442 177.079,119.561 176.269,119.472 175.819 C 119.313 175.021,119.307 175.021,119.249 175.800 M191.206 176.433 C 191.209 177.185,191.392 178.070,191.612 178.400 C 191.891 178.819,191.933 178.458,191.750 177.200 C 191.425 174.959,191.198 174.640,191.206 176.433 M107.856 176.484 C 107.721 176.988,107.632 178.120,107.658 179.000 C 107.697 180.320,107.759 180.180,108.013 178.200 C 108.337 175.678,108.270 174.941,107.856 176.484 M208.268 178.600 C 208.571 180.577,208.802 180.914,208.794 179.367 C 208.791 178.725,208.616 177.930,208.405 177.600 C 208.145 177.191,208.101 177.510,208.268 178.600 M173.449 178.215 C 173.312 178.573,173.215 179.166,173.234 179.533 C 173.253 179.900,173.427 179.669,173.621 179.020 C 173.998 177.758,173.865 177.133,173.449 178.215 M172.649 181.015 C 172.512 181.373,172.415 181.966,172.434 182.333 C 172.453 182.700,172.627 182.469,172.821 181.820 C 173.198 180.558,173.065 179.933,172.649 181.015 M192.000 181.710 C 192.000 182.503,192.169 183.257,192.376 183.385 C 192.601 183.524,192.659 183.009,192.520 182.109 C 192.210 180.100,192.000 179.939,192.000 181.710 M107.056 182.884 C 106.921 183.388,106.833 184.610,106.860 185.600 C 106.903 187.174,106.947 187.073,107.209 184.800 C 107.524 182.066,107.467 181.350,107.056 182.884 M118.218 183.818 C 118.065 184.839,118.022 185.755,118.122 185.855 C 118.222 185.955,118.429 185.202,118.582 184.182 C 118.735 183.161,118.778 182.245,118.678 182.145 C 118.578 182.045,118.371 182.798,118.218 183.818 M209.059 183.800 C 209.199 184.900,209.377 185.875,209.456 185.967 C 209.799 186.364,209.550 182.941,209.197 182.400 C 208.930 181.990,208.886 182.435,209.059 183.800 M183.049 183.415 C 182.912 183.773,182.815 184.366,182.834 184.733 C 182.853 185.100,183.027 184.869,183.221 184.220 C 183.598 182.958,183.465 182.333,183.049 183.415 M171.849 183.815 C 171.712 184.173,171.615 184.766,171.634 185.133 C 171.653 185.500,171.827 185.269,172.021 184.620 C 172.398 183.358,172.265 182.733,171.849 183.815 M182.249 186.215 C 182.112 186.573,182.015 187.166,182.034 187.533 C 182.053 187.900,182.227 187.669,182.421 187.020 C 182.798 185.758,182.665 185.133,182.249 186.215 M192.806 186.633 C 192.809 187.275,192.984 188.070,193.195 188.400 C 193.455 188.809,193.499 188.490,193.332 187.400 C 193.029 185.423,192.798 185.086,192.806 186.633 M171.049 186.615 C 170.912 186.973,170.815 187.566,170.834 187.933 C 170.853 188.300,171.027 188.069,171.221 187.420 C 171.598 186.158,171.465 185.533,171.049 186.615 M209.888 188.800 C 210.011 190.010,210.177 191.075,210.256 191.167 C 210.553 191.511,210.330 188.167,210.004 187.400 C 209.792 186.902,209.749 187.431,209.888 188.800 M181.449 189.015 C 181.312 189.373,181.215 189.966,181.234 190.333 C 181.253 190.700,181.427 190.469,181.621 189.820 C 181.998 188.558,181.865 187.933,181.449 189.015 M106.256 189.684 C 106.121 190.188,106.033 191.410,106.060 192.400 C 106.103 193.974,106.147 193.873,106.409 191.600 C 106.724 188.866,106.667 188.150,106.256 189.684 M146.615 189.700 C 147.512 192.705,148.121 194.412,148.251 194.282 C 148.442 194.091,146.787 188.800,146.536 188.800 C 146.431 188.800,146.467 189.205,146.615 189.700 M170.249 189.415 C 170.112 189.773,170.015 190.366,170.034 190.733 C 170.053 191.100,170.227 190.869,170.421 190.220 C 170.798 188.958,170.665 188.333,170.249 189.415 M193.600 191.910 C 193.600 192.593,193.777 193.262,193.994 193.396 C 194.240 193.548,194.294 193.145,194.137 192.320 C 193.800 190.551,193.600 190.399,193.600 191.910 M117.293 192.400 C 117.293 193.170,117.375 193.485,117.476 193.100 C 117.576 192.715,117.576 192.085,117.476 191.700 C 117.375 191.315,117.293 191.630,117.293 192.400 M180.649 191.815 C 180.512 192.173,180.415 192.766,180.434 193.133 C 180.453 193.500,180.627 193.269,180.821 192.620 C 181.198 191.358,181.065 190.733,180.649 191.815 M169.449 192.215 C 169.312 192.573,169.215 193.166,169.234 193.533 C 169.253 193.900,169.427 193.669,169.621 193.020 C 169.998 191.758,169.865 191.133,169.449 192.215 M210.696 193.846 C 210.812 194.921,210.972 195.875,211.053 195.967 C 211.372 196.329,211.165 192.965,210.837 192.446 C 210.622 192.107,210.568 192.651,210.696 193.846 M168.649 195.015 C 168.512 195.373,168.415 195.966,168.434 196.333 C 168.453 196.700,168.627 196.469,168.821 195.820 C 169.198 194.558,169.065 193.933,168.649 195.015 M105.456 196.084 C 105.321 196.588,105.234 197.900,105.262 199.000 C 105.309 200.829,105.339 200.761,105.606 198.200 C 105.913 195.252,105.865 194.560,105.456 196.084 M285.000 195.601 C 284.120 195.759,285.920 195.798,289.000 195.688 C 292.080 195.579,294.675 195.424,294.767 195.344 C 295.066 195.085,286.642 195.306,285.000 195.601 M194.406 196.833 C 194.409 197.365,194.589 198.070,194.806 198.400 C 195.082 198.822,195.123 198.585,194.942 197.600 C 194.625 195.875,194.398 195.549,194.406 196.833 M211.488 198.800 C 211.611 200.010,211.777 201.075,211.856 201.167 C 212.153 201.511,211.930 198.167,211.604 197.400 C 211.392 196.902,211.349 197.431,211.488 198.800 M116.509 199.600 C 116.509 200.590,116.587 200.995,116.682 200.500 C 116.778 200.005,116.778 199.195,116.682 198.700 C 116.587 198.205,116.509 198.610,116.509 199.600 M178.046 200.867 C 178.021 201.234,177.896 201.864,177.770 202.267 C 177.552 202.962,177.563 202.963,177.997 202.287 C 178.248 201.896,178.373 201.266,178.273 200.887 C 178.111 200.268,178.088 200.266,178.046 200.867 M195.246 202.000 C 195.227 202.550,195.387 203.270,195.600 203.600 C 196.094 204.364,196.094 203.542,195.600 202.000 L 195.280 201.000 195.246 202.000 M104.653 202.836 C 104.514 203.531,104.424 204.933,104.454 205.950 C 104.497 207.409,104.575 207.166,104.822 204.801 C 105.153 201.631,105.075 200.725,104.653 202.836 M177.254 203.667 C 177.225 204.034,177.084 204.664,176.941 205.067 C 176.741 205.633,176.795 205.696,177.175 205.346 C 177.446 205.097,177.587 204.467,177.488 203.946 C 177.390 203.426,177.284 203.300,177.254 203.667 M212.509 204.800 C 212.509 205.790,212.587 206.195,212.682 205.700 C 212.778 205.205,212.778 204.395,212.682 203.900 C 212.587 203.405,212.509 203.810,212.509 204.800 M115.714 206.600 C 115.717 207.700,115.795 208.103,115.887 207.495 C 115.979 206.886,115.977 205.986,115.882 205.495 C 115.787 205.003,115.711 205.500,115.714 206.600 M274.400 206.015 C 277.061 206.313,289.868 206.516,289.567 206.256 C 289.475 206.176,285.440 206.024,280.600 205.918 C 275.760 205.811,272.970 205.855,274.400 206.015 M176.446 206.467 C 176.421 206.834,176.296 207.464,176.170 207.867 C 175.952 208.562,175.963 208.563,176.397 207.887 C 176.648 207.496,176.773 206.866,176.673 206.487 C 176.511 205.868,176.488 205.866,176.446 206.467 M196.006 207.033 C 196.009 207.455,196.195 208.070,196.418 208.400 C 196.715 208.838,196.752 208.676,196.556 207.800 C 196.227 206.329,195.998 206.010,196.006 207.033 M213.088 208.800 C 213.211 210.010,213.377 211.075,213.456 211.167 C 213.753 211.511,213.530 208.167,213.204 207.400 C 212.992 206.902,212.949 207.431,213.088 208.800 M175.646 209.267 C 175.621 209.634,175.496 210.264,175.370 210.667 C 175.152 211.362,175.163 211.363,175.597 210.687 C 175.848 210.296,175.973 209.666,175.873 209.287 C 175.711 208.668,175.688 208.666,175.646 209.267 M103.720 212.000 C 103.720 213.210,103.795 213.705,103.887 213.100 C 103.978 212.495,103.978 211.505,103.887 210.900 C 103.795 210.295,103.720 210.790,103.720 212.000 M196.846 212.000 C 196.827 212.550,196.987 213.270,197.200 213.600 C 197.694 214.364,197.694 213.542,197.200 212.000 L 196.880 211.000 196.846 212.000 M114.920 213.600 C 114.920 214.810,114.995 215.305,115.087 214.700 C 115.178 214.095,115.178 213.105,115.087 212.500 C 114.995 211.895,114.920 212.390,114.920 213.600 M214.028 214.633 C 214.044 215.495,214.209 216.560,214.396 217.000 C 214.608 217.498,214.651 216.969,214.512 215.600 C 214.244 212.965,213.989 212.457,214.028 214.633 M102.924 218.600 C 102.926 219.920,103.001 220.412,103.090 219.693 C 103.179 218.974,103.177 217.894,103.086 217.293 C 102.995 216.692,102.922 217.280,102.924 218.600 M197.668 217.000 C 197.662 217.440,197.811 218.160,198.000 218.600 C 198.438 219.619,198.438 218.568,198.000 217.200 C 197.743 216.396,197.677 216.357,197.668 217.000 M114.124 220.600 C 114.126 221.920,114.201 222.412,114.290 221.693 C 114.379 220.974,114.377 219.894,114.286 219.293 C 114.195 218.692,114.122 219.280,114.124 220.600 M214.901 219.800 C 214.905 220.680,214.987 220.993,215.083 220.495 C 215.179 219.998,215.175 219.278,215.075 218.895 C 214.975 218.513,214.896 218.920,214.901 219.800 M198.662 223.000 C 198.796 223.880,198.972 224.675,199.053 224.767 C 199.356 225.110,199.129 222.968,198.781 222.200 C 198.529 221.642,198.493 221.885,198.662 223.000 M102.120 225.200 C 102.120 226.410,102.195 226.905,102.287 226.300 C 102.378 225.695,102.378 224.705,102.287 224.100 C 102.195 223.495,102.120 223.990,102.120 225.200 M215.628 224.833 C 215.644 225.585,215.812 226.560,216.003 227.000 C 216.226 227.515,216.267 227.087,216.118 225.800 C 215.844 223.422,215.589 222.919,215.628 224.833 M113.324 227.800 C 113.326 229.120,113.401 229.612,113.490 228.893 C 113.579 228.174,113.577 227.094,113.486 226.493 C 113.395 225.892,113.322 226.480,113.324 227.800 M199.472 228.200 C 199.599 229.300,199.769 230.275,199.851 230.367 C 200.132 230.682,199.920 228.199,199.580 227.200 C 199.351 226.526,199.316 226.851,199.472 228.200 M315.423 228.089 C 315.080 228.578,314.807 229.163,314.816 229.389 C 314.825 229.615,315.105 229.296,315.439 228.680 C 315.911 227.810,316.241 227.615,316.923 227.807 C 317.615 228.000,317.673 227.964,317.200 227.632 C 316.344 227.033,316.122 227.090,315.423 228.089 M320.433 228.143 C 320.525 228.221,321.230 228.401,322.000 228.542 C 322.985 228.723,323.222 228.682,322.800 228.406 C 322.258 228.050,320.037 227.803,320.433 228.143 M216.440 229.833 C 216.462 230.475,216.633 231.450,216.820 232.000 C 217.049 232.674,217.084 232.349,216.928 231.000 C 216.669 228.750,216.379 228.059,216.440 229.833 M323.737 231.923 L 323.675 235.000 324.088 232.270 C 324.324 230.708,324.351 229.392,324.150 229.193 C 323.950 228.995,323.773 230.164,323.737 231.923 M101.265 231.400 C 101.225 232.280,101.106 233.720,101.002 234.600 L 100.812 236.200 101.223 234.600 C 101.448 233.720,101.567 232.280,101.486 231.400 L 101.340 229.800 101.265 231.400 M112.524 234.600 C 112.526 235.920,112.601 236.412,112.690 235.693 C 112.779 234.974,112.777 233.894,112.686 233.293 C 112.595 232.692,112.522 233.280,112.524 234.600 M200.493 234.400 C 200.493 235.170,200.575 235.485,200.676 235.100 C 200.776 234.715,200.776 234.085,200.676 233.700 C 200.575 233.315,200.493 233.630,200.493 234.400 M217.287 235.200 C 217.283 235.750,217.424 236.650,217.600 237.200 C 218.031 238.544,218.031 237.092,217.600 235.400 C 217.326 234.322,217.294 234.302,217.287 235.200 M201.088 238.600 C 201.211 239.920,201.376 241.075,201.456 241.167 C 201.735 241.489,201.516 238.188,201.193 237.200 C 200.989 236.579,200.949 237.109,201.088 238.600 M100.509 238.800 C 100.509 239.790,100.587 240.195,100.682 239.700 C 100.778 239.205,100.778 238.395,100.682 237.900 C 100.587 237.405,100.509 237.810,100.509 238.800 M111.670 241.200 C 111.626 242.410,111.496 243.850,111.383 244.400 L 111.177 245.400 111.606 244.418 C 111.842 243.878,111.971 242.438,111.893 241.218 L 111.751 239.000 111.670 241.200 M323.264 241.000 C 323.223 241.880,323.096 243.050,322.983 243.600 L 322.777 244.600 323.208 243.614 C 323.444 243.072,323.571 241.902,323.489 241.014 L 323.340 239.400 323.264 241.000 M218.068 240.400 C 218.088 241.439,218.718 243.146,218.732 242.200 C 218.738 241.760,218.589 241.040,218.400 240.600 C 218.189 240.110,218.061 240.032,218.068 240.400 M165.849 243.415 C 165.712 243.773,165.615 244.366,165.634 244.733 C 165.653 245.100,165.827 244.869,166.021 244.220 C 166.398 242.958,166.265 242.333,165.849 243.415 M202.109 244.800 C 202.109 245.790,202.187 246.195,202.282 245.700 C 202.378 245.205,202.378 244.395,202.282 243.900 C 202.187 243.405,202.109 243.810,202.109 244.800 M99.600 244.746 C 99.600 245.156,99.222 246.011,98.761 246.646 L 97.922 247.800 98.961 246.678 C 99.859 245.707,100.394 244.000,99.800 244.000 C 99.690 244.000,99.600 244.336,99.600 244.746 M308.626 245.500 C 307.762 246.605,307.693 246.790,308.363 246.204 C 309.165 245.504,310.223 244.000,309.914 244.000 C 309.851 244.000,309.272 244.675,308.626 245.500 M110.825 246.851 C 110.793 247.674,111.810 248.541,112.487 248.269 C 112.804 248.142,112.728 248.051,112.287 248.032 C 111.895 248.014,111.411 247.595,111.212 247.100 C 110.968 246.491,110.843 246.410,110.825 246.851 M202.400 247.304 C 202.400 247.655,202.085 248.024,201.700 248.124 C 201.044 248.296,201.045 248.310,201.713 248.354 C 202.436 248.401,203.106 247.373,202.649 246.916 C 202.512 246.779,202.400 246.953,202.400 247.304 M322.459 247.600 C 322.420 248.150,322.289 249.050,322.167 249.600 C 321.976 250.462,322.008 250.502,322.397 249.891 C 322.646 249.502,322.777 248.602,322.689 247.891 C 322.564 246.887,322.513 246.822,322.459 247.600 M302.600 248.000 C 302.096 248.217,302.022 248.344,302.400 248.344 C 302.730 248.344,303.360 248.189,303.800 248.000 C 304.304 247.783,304.378 247.656,304.000 247.656 C 303.670 247.656,303.040 247.811,302.600 248.000 M92.400 248.800 C 91.596 249.057,91.557 249.123,92.200 249.132 C 92.640 249.138,93.360 248.989,93.800 248.800 C 94.819 248.362,93.768 248.362,92.400 248.800 M115.600 248.800 C 116.150 248.976,116.960 249.120,117.400 249.120 C 118.033 249.120,117.992 249.054,117.200 248.800 C 116.650 248.624,115.840 248.480,115.400 248.480 C 114.767 248.480,114.808 248.546,115.600 248.800 M164.264 249.100 C 163.769 250.925,163.608 252.168,163.939 251.600 C 164.334 250.925,164.868 248.400,164.617 248.400 C 164.527 248.400,164.369 248.715,164.264 249.100 M197.200 248.800 C 196.396 249.057,196.357 249.123,197.000 249.132 C 197.440 249.138,198.160 248.989,198.600 248.800 C 199.619 248.362,198.568 248.362,197.200 248.800 M225.000 248.800 C 225.440 248.989,226.160 249.138,226.600 249.132 C 227.243 249.123,227.204 249.057,226.400 248.800 C 225.032 248.362,223.981 248.362,225.000 248.800 M245.200 248.800 C 244.408 249.054,244.367 249.120,245.000 249.120 C 245.440 249.120,246.250 248.976,246.800 248.800 C 247.592 248.546,247.633 248.480,247.000 248.480 C 246.560 248.480,245.750 248.624,245.200 248.800 M269.864 248.900 C 270.084 249.260,289.496 249.224,294.600 248.855 C 296.580 248.711,291.783 248.595,283.940 248.597 C 276.098 248.599,269.763 248.735,269.864 248.900 M88.200 249.600 C 87.111 249.877,87.093 249.907,88.000 249.925 C 88.550 249.935,89.360 249.789,89.800 249.600 C 90.786 249.176,89.866 249.176,88.200 249.600 M120.400 249.580 C 121.399 249.920,123.882 250.132,123.567 249.851 C 123.475 249.769,122.500 249.599,121.400 249.472 C 120.051 249.316,119.726 249.351,120.400 249.580 M192.600 249.600 C 191.511 249.877,191.493 249.907,192.400 249.925 C 192.950 249.935,193.760 249.789,194.200 249.600 C 195.186 249.176,194.266 249.176,192.600 249.600 M229.000 249.581 C 229.768 249.929,231.910 250.156,231.567 249.853 C 231.475 249.772,230.680 249.596,229.800 249.462 C 228.685 249.293,228.442 249.329,229.000 249.581 M240.600 249.600 C 239.522 249.874,239.502 249.906,240.400 249.913 C 240.950 249.917,241.850 249.776,242.400 249.600 C 243.744 249.169,242.292 249.169,240.600 249.600 M85.467 250.267 C 85.097 250.636,85.129 258.000,85.500 258.001 C 85.665 258.001,85.741 256.461,85.670 254.578 C 85.585 252.329,85.704 250.956,86.019 250.577 C 86.487 250.014,85.996 249.738,85.467 250.267 M125.100 250.399 C 125.713 251.087,125.791 257.439,125.190 257.737 C 124.965 257.849,125.010 257.894,125.290 257.838 C 126.184 257.659,126.205 251.056,125.315 250.380 C 124.705 249.918,124.673 249.921,125.100 250.399 M232.730 250.512 C 233.104 250.965,233.222 252.158,233.130 254.559 C 233.059 256.432,233.142 257.821,233.316 257.645 C 233.922 257.036,233.462 250.285,232.800 250.067 C 232.293 249.901,232.283 249.970,232.730 250.512 M237.843 250.633 C 237.494 251.541,237.543 257.517,237.900 257.740 C 238.065 257.842,238.141 256.403,238.070 254.540 C 237.985 252.320,238.105 250.956,238.419 250.577 C 238.703 250.234,238.733 250.000,238.492 250.000 C 238.268 250.000,237.976 250.285,237.843 250.633 M150.812 252.251 C 150.774 253.652,163.157 254.278,163.437 252.890 C 163.494 252.610,163.449 252.565,163.337 252.790 C 162.943 253.584,151.707 253.315,151.232 252.500 C 151.008 252.115,150.819 252.003,150.812 252.251 M321.450 254.050 C 321.309 254.753,321.269 255.402,321.359 255.492 C 321.450 255.583,321.648 255.091,321.800 254.400 C 321.952 253.709,321.993 253.059,321.891 252.958 C 321.789 252.856,321.591 253.347,321.450 254.050 " stroke="none" fill="#5b5b5b" fill-rule="evenodd"></path><path id="path4" d="M103.472 147.100 C 108.792 147.163,117.612 147.163,123.072 147.100 C 128.533 147.037,124.180 146.985,113.400 146.985 C 102.620 146.985,98.153 147.037,103.472 147.100 M192.272 147.100 C 197.592 147.163,206.412 147.163,211.872 147.100 C 217.333 147.037,212.980 146.985,202.200 146.985 C 191.420 146.985,186.953 147.037,192.272 147.100 M238.169 147.335 C 238.056 147.632,238.025 149.208,238.102 150.837 L 238.241 153.800 238.321 150.500 L 238.400 147.200 277.571 147.200 C 308.551 147.200,316.776 147.305,316.909 147.700 C 317.006 147.987,317.058 147.945,317.033 147.600 C 316.970 146.741,238.498 146.478,238.169 147.335 M181.449 151.415 C 181.312 151.773,181.215 152.366,181.234 152.733 C 181.253 153.100,181.427 152.869,181.621 152.220 C 181.998 150.958,181.865 150.333,181.449 151.415 M317.370 159.400 C 317.371 164.240,317.429 166.165,317.499 163.678 C 317.569 161.191,317.569 157.231,317.498 154.878 C 317.428 152.525,317.370 154.560,317.370 159.400 M180.649 154.215 C 180.512 154.573,180.415 155.166,180.434 155.533 C 180.453 155.900,180.627 155.669,180.821 155.020 C 181.198 153.758,181.065 153.133,180.649 154.215 M274.122 154.699 C 276.499 154.770,280.279 154.769,282.522 154.698 C 284.765 154.627,282.820 154.569,278.200 154.569 C 273.580 154.570,271.745 154.628,274.122 154.699 M269.067 155.067 C 268.549 155.584,268.757 195.797,269.280 196.320 C 269.544 196.584,270.579 196.772,271.580 196.737 L 273.400 196.674 271.400 196.437 L 269.400 196.200 269.400 175.500 C 269.400 164.115,269.385 154.800,269.367 154.800 C 269.348 154.800,269.213 154.920,269.067 155.067 M290.300 155.089 C 291.015 155.178,292.185 155.178,292.900 155.089 C 293.615 155.001,293.030 154.928,291.600 154.928 C 290.170 154.928,289.585 155.001,290.300 155.089 M296.100 155.476 C 296.485 155.576,297.115 155.576,297.500 155.476 C 297.885 155.375,297.570 155.293,296.800 155.293 C 296.030 155.293,295.715 155.375,296.100 155.476 M104.833 156.143 C 104.925 156.221,105.630 156.401,106.400 156.542 C 107.385 156.723,107.622 156.682,107.200 156.406 C 106.658 156.050,104.437 155.803,104.833 156.143 M208.400 156.406 C 207.978 156.682,208.215 156.723,209.200 156.542 C 210.925 156.225,211.251 155.998,209.967 156.006 C 209.435 156.009,208.730 156.189,208.400 156.406 M109.049 157.600 C 109.516 158.150,109.997 158.870,110.118 159.200 C 110.305 159.714,110.341 159.709,110.368 159.170 C 110.386 158.823,109.905 158.103,109.300 157.570 L 108.200 156.600 109.049 157.600 M206.048 157.749 C 205.290 158.555,205.179 159.049,205.303 161.049 L 205.449 163.400 205.524 161.026 C 205.582 159.208,205.804 158.435,206.470 157.726 C 206.948 157.217,207.249 156.800,207.139 156.800 C 207.029 156.800,206.538 157.227,206.048 157.749 M303.941 158.304 C 304.744 159.131,305.478 159.758,305.573 159.698 C 305.799 159.554,303.128 156.800,302.763 156.800 C 302.609 156.800,303.139 157.477,303.941 158.304 M110.101 162.600 C 110.105 163.480,110.187 163.793,110.283 163.295 C 110.379 162.798,110.375 162.078,110.275 161.695 C 110.175 161.313,110.096 161.720,110.101 162.600 M120.409 162.038 C 120.404 162.389,120.760 163.002,121.200 163.400 C 122.221 164.324,122.221 163.705,121.200 162.400 C 120.631 161.672,120.415 161.574,120.409 162.038 M188.622 163.150 C 188.231 164.019,188.006 164.971,188.123 165.265 C 188.264 165.616,188.348 165.550,188.368 165.074 C 188.432 163.605,189.277 162.494,189.635 163.409 C 189.941 164.193,189.944 164.193,189.966 163.400 C 190.013 161.666,189.347 161.543,188.622 163.150 M120.109 165.200 C 120.109 166.190,120.187 166.595,120.282 166.100 C 120.378 165.605,120.378 164.795,120.282 164.300 C 120.187 163.805,120.109 164.210,120.109 165.200 M187.449 166.615 C 187.312 166.973,187.215 167.566,187.234 167.933 C 187.253 168.300,187.427 168.069,187.621 167.420 C 187.998 166.158,187.865 165.533,187.449 166.615 M206.040 167.033 C 206.062 167.675,206.233 168.650,206.420 169.200 C 206.649 169.874,206.684 169.549,206.528 168.200 C 206.269 165.950,205.979 165.259,206.040 167.033 M307.444 168.200 C 307.773 169.671,308.002 169.990,307.994 168.967 C 307.991 168.545,307.805 167.930,307.582 167.600 C 307.285 167.162,307.248 167.324,307.444 168.200 M109.293 169.200 C 109.293 169.970,109.375 170.285,109.476 169.900 C 109.576 169.515,109.576 168.885,109.476 168.500 C 109.375 168.115,109.293 168.430,109.293 169.200 M308.056 170.800 C 308.056 171.130,308.211 171.760,308.400 172.200 C 308.617 172.704,308.744 172.778,308.744 172.400 C 308.744 172.070,308.589 171.440,308.400 171.000 C 308.183 170.496,308.056 170.422,308.056 170.800 M316.914 172.200 C 316.917 173.300,316.995 173.703,317.087 173.095 C 317.179 172.486,317.177 171.586,317.082 171.095 C 316.987 170.603,316.911 171.100,316.914 172.200 M119.309 172.400 C 119.309 173.390,119.387 173.795,119.482 173.300 C 119.578 172.805,119.578 171.995,119.482 171.500 C 119.387 171.005,119.309 171.410,119.309 172.400 M190.887 171.400 C 190.891 171.840,191.032 172.740,191.200 173.400 C 191.474 174.478,191.506 174.498,191.513 173.600 C 191.517 173.050,191.376 172.150,191.200 171.600 C 190.949 170.816,190.881 170.773,190.887 171.400 M185.429 173.829 C 185.281 174.415,185.238 174.972,185.332 175.066 C 185.427 175.160,185.624 174.758,185.771 174.171 C 185.919 173.585,185.962 173.028,185.868 172.934 C 185.773 172.840,185.576 173.242,185.429 173.829 M118.893 175.600 C 118.893 176.370,118.975 176.685,119.076 176.300 C 119.176 175.915,119.176 175.285,119.076 174.900 C 118.975 174.515,118.893 174.830,118.893 175.600 M108.233 176.833 C 108.083 177.966,108.041 178.974,108.139 179.072 C 108.237 179.171,108.445 178.328,108.600 177.200 C 108.755 176.072,108.798 175.064,108.694 174.961 C 108.591 174.858,108.384 175.700,108.233 176.833 M184.629 176.629 C 184.481 177.215,184.438 177.772,184.532 177.866 C 184.627 177.960,184.824 177.558,184.971 176.971 C 185.119 176.385,185.162 175.828,185.068 175.734 C 184.973 175.640,184.776 176.042,184.629 176.629 M207.687 177.200 C 207.683 177.750,207.824 178.650,208.000 179.200 C 208.431 180.544,208.431 179.092,208.000 177.400 C 207.726 176.322,207.694 176.302,207.687 177.200 M118.501 179.400 C 118.505 180.280,118.587 180.593,118.683 180.095 C 118.779 179.598,118.775 178.878,118.675 178.495 C 118.575 178.113,118.496 178.520,118.501 179.400 M107.433 183.633 C 107.283 184.766,107.241 185.774,107.339 185.872 C 107.437 185.971,107.645 185.128,107.800 184.000 C 107.955 182.872,107.998 181.864,107.894 181.761 C 107.791 181.658,107.584 182.500,107.433 183.633 M117.709 186.400 C 117.709 187.390,117.787 187.795,117.882 187.300 C 117.978 186.805,117.978 185.995,117.882 185.500 C 117.787 185.005,117.709 185.410,117.709 186.400 M193.472 187.800 C 193.599 188.900,193.769 189.875,193.851 189.967 C 194.132 190.282,193.920 187.799,193.580 186.800 C 193.351 186.126,193.316 186.451,193.472 187.800 M209.280 187.400 C 209.280 187.840,209.424 188.650,209.600 189.200 C 209.854 189.992,209.920 190.033,209.920 189.400 C 209.920 188.960,209.776 188.150,209.600 187.600 C 209.346 186.808,209.280 186.767,209.280 187.400 M106.618 190.218 C 106.465 191.239,106.422 192.155,106.522 192.255 C 106.622 192.355,106.829 191.602,106.982 190.582 C 107.135 189.561,107.178 188.645,107.078 188.545 C 106.978 188.445,106.771 189.198,106.618 190.218 M210.080 192.200 C 210.080 192.640,210.224 193.450,210.400 194.000 C 210.654 194.792,210.720 194.833,210.720 194.200 C 210.720 193.760,210.576 192.950,210.400 192.400 C 210.146 191.608,210.080 191.567,210.080 192.200 M116.901 193.400 C 116.905 194.280,116.987 194.593,117.083 194.095 C 117.179 193.598,117.175 192.878,117.075 192.495 C 116.975 192.113,116.896 192.520,116.901 193.400 M194.493 194.000 C 194.493 194.770,194.575 195.085,194.676 194.700 C 194.776 194.315,194.776 193.685,194.676 193.300 C 194.575 192.915,194.493 193.230,194.493 194.000 M105.833 196.833 C 105.683 197.966,105.641 198.974,105.739 199.072 C 105.837 199.171,106.045 198.328,106.200 197.200 C 106.355 196.072,106.398 195.064,106.294 194.961 C 106.191 194.858,105.984 195.700,105.833 196.833 M300.100 195.487 C 300.705 195.578,301.695 195.578,302.300 195.487 C 302.905 195.395,302.410 195.320,301.200 195.320 C 299.990 195.320,299.495 195.395,300.100 195.487 M290.500 195.894 C 291.545 195.976,293.255 195.976,294.300 195.894 C 295.345 195.812,294.490 195.744,292.400 195.744 C 290.310 195.744,289.455 195.812,290.500 195.894 M303.686 200.686 L 303.600 205.973 299.300 206.102 L 295.000 206.230 299.313 206.315 C 304.439 206.416,304.065 206.901,303.899 200.378 L 303.773 195.400 303.686 200.686 M278.100 196.297 C 279.585 196.374,282.015 196.374,283.500 196.297 C 284.985 196.220,283.770 196.157,280.800 196.157 C 277.830 196.157,276.615 196.220,278.100 196.297 M210.880 197.400 C 210.880 197.840,211.024 198.650,211.200 199.200 C 211.454 199.992,211.520 200.033,211.520 199.400 C 211.520 198.960,211.376 198.150,211.200 197.600 C 210.946 196.808,210.880 196.767,210.880 197.400 M195.293 199.200 C 195.293 199.970,195.375 200.285,195.476 199.900 C 195.576 199.515,195.576 198.885,195.476 198.500 C 195.375 198.115,195.293 198.430,195.293 199.200 M115.840 201.440 C 115.690 202.903,115.649 204.182,115.748 204.282 C 115.848 204.381,116.057 203.271,116.213 201.813 C 116.369 200.356,116.411 199.077,116.305 198.972 C 116.199 198.866,115.990 199.977,115.840 201.440 M105.018 203.418 C 104.865 204.439,104.822 205.355,104.922 205.455 C 105.022 205.555,105.229 204.802,105.382 203.782 C 105.535 202.761,105.578 201.845,105.478 201.745 C 105.378 201.645,105.171 202.398,105.018 203.418 M211.687 202.200 C 211.691 202.640,211.832 203.540,212.000 204.200 C 212.274 205.278,212.306 205.298,212.313 204.400 C 212.317 203.850,212.176 202.950,212.000 202.400 C 211.749 201.616,211.681 201.573,211.687 202.200 M271.500 205.495 C 272.655 205.576,274.545 205.576,275.700 205.495 C 276.855 205.414,275.910 205.348,273.600 205.348 C 271.290 205.348,270.345 205.414,271.500 205.495 M268.889 227.076 C 268.840 238.998,268.935 248.836,269.100 248.938 C 269.371 249.106,269.363 226.542,269.087 211.400 C 269.027 208.100,268.938 215.154,268.889 227.076 M282.115 205.896 C 283.388 205.976,285.368 205.975,286.515 205.894 C 287.662 205.814,286.620 205.749,284.200 205.750 C 281.780 205.751,280.842 205.816,282.115 205.896 M115.029 208.429 C 114.876 209.779,114.833 210.966,114.933 211.067 C 115.034 211.167,115.244 210.147,115.400 208.800 C 115.556 207.453,115.599 206.266,115.495 206.162 C 115.391 206.058,115.181 207.078,115.029 208.429 M212.480 207.400 C 212.480 207.840,212.624 208.650,212.800 209.200 C 213.054 209.992,213.120 210.033,213.120 209.400 C 213.120 208.960,212.976 208.150,212.800 207.600 C 212.546 206.808,212.480 206.767,212.480 207.400 M104.233 210.033 C 104.083 211.166,104.041 212.174,104.139 212.272 C 104.237 212.371,104.445 211.528,104.600 210.400 C 104.755 209.272,104.798 208.264,104.694 208.161 C 104.591 208.058,104.384 208.900,104.233 210.033 M213.287 212.200 C 213.291 212.640,213.432 213.540,213.600 214.200 C 213.874 215.278,213.906 215.298,213.913 214.400 C 213.917 213.850,213.776 212.950,213.600 212.400 C 213.349 211.616,213.281 211.573,213.287 212.200 M114.215 215.415 C 114.061 216.654,114.017 217.750,114.119 217.852 C 114.220 217.954,114.430 217.023,114.585 215.785 C 114.739 214.546,114.783 213.450,114.681 213.348 C 114.580 213.246,114.370 214.177,114.215 215.415 M197.693 214.400 C 197.693 215.170,197.775 215.485,197.876 215.100 C 197.976 214.715,197.976 214.085,197.876 213.700 C 197.775 213.315,197.693 213.630,197.693 214.400 M103.400 216.800 C 103.245 217.928,103.202 218.936,103.306 219.039 C 103.409 219.142,103.616 218.300,103.767 217.167 C 103.917 216.034,103.959 215.026,103.861 214.928 C 103.763 214.829,103.555 215.672,103.400 216.800 M214.087 217.400 C 214.091 217.840,214.232 218.740,214.400 219.400 C 214.674 220.478,214.706 220.498,214.713 219.600 C 214.717 219.050,214.576 218.150,214.400 217.600 C 214.149 216.816,214.081 216.773,214.087 217.400 M198.493 219.600 C 198.493 220.370,198.575 220.685,198.676 220.300 C 198.776 219.915,198.776 219.285,198.676 218.900 C 198.575 218.515,198.493 218.830,198.493 219.600 M113.446 222.246 C 113.300 223.493,113.259 224.593,113.357 224.690 C 113.454 224.788,113.661 223.854,113.815 222.615 C 113.970 221.377,114.010 220.277,113.905 220.171 C 113.799 220.066,113.593 220.999,113.446 222.246 M102.615 223.415 C 102.461 224.654,102.417 225.750,102.519 225.852 C 102.620 225.954,102.830 225.023,102.985 223.785 C 103.139 222.546,103.183 221.450,103.081 221.348 C 102.980 221.246,102.770 222.177,102.615 223.415 M214.887 222.200 C 214.891 222.640,215.032 223.540,215.200 224.200 C 215.474 225.278,215.506 225.298,215.513 224.400 C 215.517 223.850,215.376 222.950,215.200 222.400 C 214.949 221.616,214.881 221.573,214.887 222.200 M199.240 224.633 C 199.262 225.275,199.433 226.250,199.620 226.800 C 199.849 227.474,199.884 227.149,199.728 225.800 C 199.469 223.550,199.179 222.859,199.240 224.633 M215.687 227.400 C 215.691 227.840,215.832 228.740,216.000 229.400 C 216.274 230.478,216.306 230.498,216.313 229.600 C 216.317 229.050,216.176 228.150,216.000 227.600 C 215.749 226.816,215.681 226.773,215.687 227.400 M112.633 229.233 C 112.483 230.366,112.441 231.374,112.539 231.472 C 112.637 231.571,112.845 230.728,113.000 229.600 C 113.155 228.472,113.198 227.464,113.094 227.361 C 112.991 227.258,112.784 228.100,112.633 229.233 M158.528 227.795 C 158.614 228.637,160.000 229.193,160.000 228.387 C 160.000 228.127,159.741 228.014,159.425 228.135 C 159.094 228.262,158.764 228.068,158.648 227.678 C 158.500 227.182,158.468 227.214,158.528 227.795 M101.800 230.000 C 101.645 231.128,101.602 232.136,101.706 232.239 C 101.809 232.342,102.016 231.500,102.167 230.367 C 102.317 229.234,102.359 228.226,102.261 228.128 C 102.163 228.029,101.955 228.872,101.800 230.000 M317.300 228.276 C 317.685 228.376,318.315 228.376,318.700 228.276 C 319.085 228.175,318.770 228.093,318.000 228.093 C 317.230 228.093,316.915 228.175,317.300 228.276 M323.346 233.400 C 323.347 235.600,323.414 236.449,323.495 235.287 C 323.576 234.124,323.576 232.324,323.493 231.287 C 323.411 230.249,323.345 231.200,323.346 233.400 M111.815 236.215 C 111.661 237.454,111.617 238.550,111.719 238.652 C 111.820 238.754,112.030 237.823,112.185 236.585 C 112.339 235.346,112.383 234.250,112.281 234.148 C 112.180 234.046,111.970 234.977,111.815 236.215 M200.887 234.800 C 200.883 235.350,201.024 236.250,201.200 236.800 C 201.631 238.144,201.631 236.692,201.200 235.000 C 200.926 233.922,200.894 233.902,200.887 234.800 M101.015 236.615 C 100.861 237.854,100.817 238.950,100.919 239.052 C 101.020 239.154,101.230 238.223,101.385 236.985 C 101.539 235.746,101.583 234.650,101.481 234.548 C 101.380 234.446,101.170 235.377,101.015 236.615 M217.472 238.600 C 217.599 239.700,217.769 240.675,217.851 240.767 C 218.132 241.082,217.920 238.599,217.580 237.600 C 217.351 236.926,217.316 237.251,217.472 238.600 M201.687 240.000 C 201.683 240.550,201.824 241.450,202.000 242.000 C 202.431 243.344,202.431 241.892,202.000 240.200 C 201.726 239.122,201.694 239.102,201.687 240.000 M322.893 241.200 C 322.893 241.970,322.975 242.285,323.076 241.900 C 323.176 241.515,323.176 240.885,323.076 240.500 C 322.975 240.115,322.893 240.430,322.893 241.200 M100.218 243.018 C 100.065 244.039,100.022 244.955,100.122 245.055 C 100.222 245.155,100.429 244.402,100.582 243.382 C 100.735 242.361,100.778 241.445,100.678 241.345 C 100.578 241.245,100.371 241.998,100.218 243.018 M111.000 243.200 C 110.845 244.328,110.802 245.336,110.906 245.439 C 111.009 245.542,111.216 244.700,111.367 243.567 C 111.517 242.434,111.559 241.426,111.461 241.328 C 111.363 241.229,111.155 242.072,111.000 243.200 M322.501 244.200 C 322.505 245.080,322.587 245.393,322.683 244.895 C 322.779 244.398,322.775 243.678,322.675 243.295 C 322.575 242.913,322.496 243.320,322.501 244.200 M309.400 244.946 C 308.960 245.636,307.797 246.605,306.815 247.100 C 305.834 247.595,305.312 248.000,305.656 248.000 C 306.936 248.000,310.996 244.430,310.373 243.852 C 310.278 243.764,309.840 244.256,309.400 244.946 M202.672 246.200 C 202.799 247.300,202.969 248.275,203.051 248.367 C 203.332 248.682,203.120 246.199,202.780 245.200 C 202.551 244.526,202.516 244.851,202.672 246.200 M218.800 245.864 C 218.800 246.082,219.295 246.697,219.900 247.230 L 221.000 248.200 220.000 247.000 C 219.450 246.340,218.955 245.725,218.900 245.633 C 218.845 245.542,218.800 245.645,218.800 245.864 M252.034 246.953 L 251.069 248.200 252.213 247.112 C 252.843 246.514,253.277 245.953,253.179 245.865 C 253.080 245.777,252.565 246.267,252.034 246.953 M94.200 248.819 C 93.642 249.071,93.885 249.107,95.000 248.938 C 95.880 248.804,96.675 248.628,96.767 248.547 C 97.110 248.244,94.968 248.471,94.200 248.819 M222.033 248.547 C 222.125 248.628,222.920 248.804,223.800 248.938 C 224.915 249.107,225.158 249.071,224.600 248.819 C 223.832 248.471,221.690 248.244,222.033 248.547 M247.200 248.800 C 245.856 249.231,247.308 249.231,249.000 248.800 C 250.078 248.526,250.098 248.494,249.200 248.487 C 248.650 248.483,247.750 248.624,247.200 248.800 M300.300 248.682 C 300.795 248.778,301.605 248.778,302.100 248.682 C 302.595 248.587,302.190 248.509,301.200 248.509 C 300.210 248.509,299.805 248.587,300.300 248.682 M295.907 249.090 C 296.626 249.179,297.706 249.177,298.307 249.086 C 298.908 248.995,298.320 248.922,297.000 248.924 C 295.680 248.926,295.188 249.001,295.907 249.090 M90.000 249.600 C 88.656 250.031,90.108 250.031,91.800 249.600 C 92.878 249.326,92.898 249.294,92.000 249.287 C 91.450 249.283,90.550 249.424,90.000 249.600 M116.833 249.349 C 116.925 249.431,117.900 249.601,119.000 249.728 C 120.349 249.884,120.674 249.849,120.000 249.620 C 119.001 249.280,116.518 249.068,116.833 249.349 M226.033 249.347 C 226.125 249.428,226.920 249.604,227.800 249.738 C 228.915 249.907,229.158 249.871,228.600 249.619 C 227.832 249.271,225.690 249.044,226.033 249.347 M242.800 249.600 C 241.456 250.031,242.908 250.031,244.600 249.600 C 245.678 249.326,245.698 249.294,244.800 249.287 C 244.250 249.283,243.350 249.424,242.800 249.600 M190.400 250.406 C 189.978 250.682,190.215 250.723,191.200 250.542 C 192.925 250.225,193.251 249.998,191.967 250.006 C 191.435 250.009,190.730 250.189,190.400 250.406 M231.500 250.448 L 232.800 250.823 232.881 254.311 L 232.963 257.800 233.099 254.408 C 233.246 250.760,232.864 249.955,231.024 250.036 C 230.473 250.060,230.631 250.197,231.500 250.448 M238.800 250.406 C 238.378 250.682,238.615 250.723,239.600 250.542 C 241.325 250.225,241.651 249.998,240.367 250.006 C 239.835 250.009,239.130 250.189,238.800 250.406 M85.769 250.935 C 85.656 251.230,85.619 252.895,85.686 254.635 L 85.808 257.800 86.004 254.099 C 86.199 250.418,86.162 249.913,85.769 250.935 M124.720 250.880 C 124.999 251.159,125.233 252.711,125.278 254.580 L 125.357 257.800 125.499 255.008 C 125.659 251.866,125.408 250.400,124.712 250.400 C 124.353 250.400,124.355 250.515,124.720 250.880 M238.140 254.400 C 238.140 256.270,238.209 257.035,238.293 256.100 C 238.377 255.165,238.377 253.635,238.293 252.700 C 238.209 251.765,238.140 252.530,238.140 254.400 M154.518 253.098 C 156.233 253.173,158.933 253.172,160.518 253.097 C 162.103 253.021,160.700 252.959,157.400 252.960 C 154.100 252.961,152.803 253.022,154.518 253.098 M320.893 255.600 C 320.893 256.370,320.975 256.685,321.076 256.300 C 321.176 255.915,321.176 255.285,321.076 254.900 C 320.975 254.515,320.893 254.830,320.893 255.600 M95.900 257.900 C 101.235 257.963,109.965 257.963,115.300 257.900 C 120.635 257.837,116.270 257.785,105.600 257.785 C 94.930 257.785,90.565 257.837,95.900 257.900 M200.928 257.900 C 206.829 257.962,216.369 257.962,222.128 257.900 C 227.888 257.837,223.060 257.786,211.400 257.786 C 199.740 257.786,195.028 257.837,200.928 257.900 M259.131 257.900 C 270.422 257.959,288.782 257.959,299.931 257.900 C 311.079 257.841,301.840 257.793,279.400 257.793 C 256.960 257.793,247.839 257.841,259.131 257.900 " stroke="none" fill="#848484" fill-rule="evenodd"></path></g></svg>