<svg id="svg" version="1.1" xmlns="http://www.w3.org/2000/svg" xmlns:xlink="http://www.w3.org/1999/xlink" width="400" height="400" viewBox="0, 0, 400,400"><g id="svgg"><path id="path0" d="M93.600 136.000 C 93.600 136.220,92.880 136.400,92.000 136.400 C 91.120 136.400,90.400 136.580,90.400 136.800 C 90.400 137.020,90.040 137.200,89.600 137.200 C 89.160 137.200,88.800 137.380,88.800 137.600 C 88.800 137.820,88.522 138.000,88.182 138.000 C 87.426 138.000,85.600 139.763,85.600 140.494 C 85.600 140.785,85.240 141.283,84.800 141.600 C 84.280 141.975,84.000 142.635,84.000 143.488 C 84.000 144.210,83.820 144.800,83.600 144.800 C 83.352 144.800,83.200 146.933,83.200 150.400 C 83.200 153.867,83.352 156.000,83.600 156.000 C 83.820 156.000,84.000 156.630,84.000 157.400 C 84.000 158.170,84.180 158.800,84.400 158.800 C 84.620 158.800,84.800 159.075,84.800 159.411 C 84.800 160.204,88.196 163.600,88.989 163.600 C 89.325 163.600,89.600 163.780,89.600 164.000 C 89.600 164.220,90.219 164.400,90.976 164.400 C 91.733 164.400,92.464 164.580,92.600 164.800 C 92.736 165.020,93.456 165.200,94.200 165.200 C 94.944 165.200,95.664 165.380,95.800 165.600 C 95.936 165.820,96.667 166.000,97.424 166.000 C 98.686 166.000,98.800 166.099,98.800 167.200 C 98.800 167.860,98.620 168.400,98.400 168.400 C 98.167 168.400,98.000 169.733,98.000 171.600 C 98.000 173.467,97.833 174.800,97.600 174.800 C 97.369 174.800,97.200 176.059,97.200 177.776 C 97.200 179.413,97.020 180.864,96.800 181.000 C 96.580 181.136,96.400 182.666,96.400 184.400 C 96.400 186.134,96.220 187.664,96.000 187.800 C 95.780 187.936,95.600 189.351,95.600 190.944 C 95.600 192.537,95.434 194.011,95.230 194.220 C 95.027 194.429,94.764 195.950,94.646 197.600 C 94.528 199.250,94.241 202.130,94.008 204.000 C 93.176 210.682,92.825 213.866,92.423 218.400 C 92.198 220.930,91.831 223.975,91.607 225.167 C 91.383 226.358,91.200 228.653,91.200 230.267 C 91.200 231.956,91.030 233.200,90.800 233.200 C 90.571 233.200,90.400 234.400,90.400 236.000 L 90.400 238.800 89.200 238.800 C 88.540 238.800,88.000 238.980,88.000 239.200 C 88.000 239.420,87.280 239.600,86.400 239.600 C 85.520 239.600,84.800 239.780,84.800 240.000 C 84.800 240.220,83.900 240.400,82.800 240.400 C 81.700 240.400,80.800 240.550,80.800 240.732 C 80.800 240.915,80.305 241.312,79.700 241.615 C 75.972 243.480,75.015 246.058,75.027 254.200 C 75.034 259.314,75.170 260.892,75.704 262.052 C 76.524 263.837,79.310 266.800,80.169 266.800 C 80.516 266.800,80.800 266.980,80.800 267.200 C 80.800 267.420,81.145 267.600,81.567 267.600 C 81.988 267.600,82.408 267.825,82.500 268.100 C 82.631 268.492,87.569 268.600,105.400 268.600 C 123.231 268.600,128.169 268.492,128.300 268.100 C 128.392 267.825,128.812 267.600,129.233 267.600 C 129.655 267.600,130.000 267.420,130.000 267.200 C 130.000 266.980,130.275 266.800,130.611 266.800 C 131.404 266.800,134.800 263.404,134.800 262.611 C 134.800 262.275,134.980 262.000,135.200 262.000 C 135.420 262.000,135.600 261.280,135.600 260.400 C 135.600 259.520,135.780 258.800,136.000 258.800 C 136.243 258.800,136.400 257.000,136.400 254.200 C 136.400 251.400,136.243 249.600,136.000 249.600 C 135.780 249.600,135.600 248.880,135.600 248.000 C 135.600 247.120,135.420 246.400,135.200 246.400 C 134.980 246.400,134.800 246.040,134.800 245.600 C 134.800 245.160,134.664 244.800,134.498 244.800 C 134.331 244.800,133.972 244.295,133.698 243.677 C 133.396 242.993,132.576 242.279,131.601 241.848 C 130.720 241.460,130.000 240.975,130.000 240.771 C 130.000 240.567,129.100 240.400,128.000 240.400 C 126.900 240.400,126.000 240.220,126.000 240.000 C 126.000 239.780,125.325 239.600,124.500 239.600 L 123.000 239.601 123.277 236.300 C 123.430 234.485,123.739 231.290,123.965 229.200 C 124.191 227.110,124.548 223.780,124.759 221.800 C 124.970 219.820,125.156 217.004,125.172 215.543 C 125.192 213.652,125.362 212.823,125.761 212.670 C 126.531 212.375,126.800 212.735,126.800 214.067 C 126.800 214.690,126.980 215.200,127.200 215.200 C 127.420 215.200,127.600 215.740,127.600 216.400 C 127.600 217.060,127.780 217.600,128.000 217.600 C 128.220 217.600,128.400 218.039,128.400 218.576 C 128.400 219.113,128.580 219.664,128.800 219.800 C 129.020 219.936,129.200 220.476,129.200 221.000 C 129.200 221.524,129.380 222.064,129.600 222.200 C 129.820 222.336,130.000 222.887,130.000 223.424 C 130.000 223.961,130.180 224.400,130.400 224.400 C 130.620 224.400,130.800 224.940,130.800 225.600 C 130.800 226.260,130.980 226.800,131.200 226.800 C 131.420 226.800,131.600 227.340,131.600 228.000 C 131.600 228.660,131.780 229.200,132.000 229.200 C 132.220 229.200,132.400 229.740,132.400 230.400 C 132.400 231.060,132.580 231.600,132.800 231.600 C 133.020 231.600,133.200 232.140,133.200 232.800 C 133.200 233.460,133.380 234.000,133.600 234.000 C 133.820 234.000,134.000 234.540,134.000 235.200 C 134.000 235.860,134.180 236.400,134.400 236.400 C 134.620 236.400,134.800 236.839,134.800 237.376 C 134.800 237.913,134.980 238.464,135.200 238.600 C 135.420 238.736,135.600 239.287,135.600 239.824 C 135.600 240.361,135.780 240.800,136.000 240.800 C 136.220 240.800,136.400 241.340,136.400 242.000 C 136.400 242.660,136.580 243.200,136.800 243.200 C 137.020 243.200,137.200 243.740,137.200 244.400 C 137.200 245.060,137.380 245.600,137.600 245.600 C 137.820 245.600,138.000 246.140,138.000 246.800 C 138.000 247.460,138.180 248.000,138.400 248.000 C 138.620 248.000,138.800 248.540,138.800 249.200 C 138.800 249.860,138.980 250.400,139.200 250.400 C 139.420 250.400,139.600 250.940,139.600 251.600 C 139.600 252.260,139.780 252.800,140.000 252.800 C 140.220 252.800,140.400 253.239,140.400 253.776 C 140.400 254.313,140.580 254.864,140.800 255.000 C 141.020 255.136,141.200 255.614,141.200 256.062 C 141.200 257.766,144.470 262.000,145.787 262.000 C 146.124 262.000,146.400 262.180,146.400 262.400 C 146.400 262.620,146.760 262.800,147.200 262.800 C 147.640 262.800,148.000 262.980,148.000 263.200 C 148.000 263.420,148.720 263.600,149.600 263.600 C 150.480 263.600,151.200 263.780,151.200 264.000 C 151.200 264.249,153.533 264.400,157.400 264.400 C 161.267 264.400,163.600 264.249,163.600 264.000 C 163.600 263.780,164.320 263.600,165.200 263.600 C 166.080 263.600,166.800 263.420,166.800 263.200 C 166.800 262.980,167.160 262.800,167.600 262.800 C 168.040 262.800,168.400 262.620,168.400 262.400 C 168.400 262.180,168.691 262.000,169.046 262.000 C 169.793 262.000,172.400 259.297,172.400 258.522 C 172.400 258.235,172.580 258.000,172.800 258.000 C 173.020 258.000,173.200 257.638,173.200 257.195 C 173.200 256.752,173.358 256.077,173.551 255.695 C 174.168 254.473,174.754 252.260,175.032 250.100 C 175.181 248.945,175.460 248.000,175.652 248.000 C 175.843 248.000,176.000 247.280,176.000 246.400 C 176.000 245.520,176.180 244.800,176.400 244.800 C 176.620 244.800,176.800 244.260,176.800 243.600 C 176.800 242.940,176.980 242.400,177.200 242.400 C 177.420 242.400,177.600 241.770,177.600 241.000 C 177.600 240.230,177.780 239.600,178.000 239.600 C 178.220 239.600,178.400 239.060,178.400 238.400 C 178.400 237.740,178.580 237.200,178.800 237.200 C 179.020 237.200,179.200 236.480,179.200 235.600 C 179.200 234.720,179.380 234.000,179.600 234.000 C 179.820 234.000,180.000 233.460,180.000 232.800 C 180.000 232.140,180.180 231.600,180.400 231.600 C 180.620 231.600,180.800 230.880,180.800 230.000 C 180.800 229.120,180.980 228.400,181.200 228.400 C 181.420 228.400,181.600 227.860,181.600 227.200 C 181.600 226.540,181.780 226.000,182.000 226.000 C 182.220 226.000,182.400 225.370,182.400 224.600 C 182.400 223.830,182.580 223.200,182.800 223.200 C 183.020 223.200,183.200 222.660,183.200 222.000 C 183.200 221.340,183.380 220.800,183.600 220.800 C 183.820 220.800,184.000 220.080,184.000 219.200 C 184.000 218.320,184.180 217.600,184.400 217.600 C 184.620 217.600,184.800 217.060,184.800 216.400 C 184.800 215.740,184.980 215.200,185.200 215.200 C 185.420 215.200,185.600 214.480,185.600 213.600 C 185.600 212.720,185.780 212.000,186.000 212.000 C 186.220 212.000,186.400 212.540,186.400 213.200 C 186.400 213.860,186.580 214.400,186.800 214.400 C 187.022 214.400,187.200 215.467,187.200 216.800 C 187.200 218.133,187.378 219.200,187.600 219.200 C 187.826 219.200,188.000 220.333,188.000 221.800 C 188.000 223.267,188.174 224.400,188.400 224.400 C 188.622 224.400,188.800 225.467,188.800 226.800 C 188.800 228.133,188.978 229.200,189.200 229.200 C 189.422 229.200,189.600 230.267,189.600 231.600 C 189.600 232.933,189.778 234.000,190.000 234.000 C 190.225 234.000,190.400 235.122,190.400 236.567 C 190.400 238.246,190.573 239.203,190.900 239.335 C 191.175 239.446,190.815 239.551,190.100 239.568 C 189.385 239.586,188.800 239.780,188.800 240.000 C 188.800 240.220,188.080 240.400,187.200 240.400 C 186.320 240.400,185.600 240.580,185.600 240.800 C 185.600 241.020,185.322 241.200,184.983 241.200 C 184.644 241.200,184.125 241.402,183.829 241.649 C 181.678 243.448,180.800 244.408,180.800 244.960 C 180.800 245.312,180.620 245.600,180.400 245.600 C 180.180 245.600,180.000 245.924,180.000 246.320 C 180.000 246.716,179.776 247.264,179.503 247.537 C 178.795 248.245,178.795 260.865,179.503 261.101 C 179.776 261.192,180.000 261.612,180.000 262.033 C 180.000 262.455,180.180 262.800,180.400 262.800 C 180.620 262.800,180.800 263.076,180.800 263.413 C 180.800 264.209,183.391 266.800,184.187 266.800 C 184.524 266.800,184.800 266.980,184.800 267.200 C 184.800 267.420,185.145 267.600,185.567 267.600 C 185.988 267.600,186.408 267.825,186.500 268.100 C 186.745 268.835,323.255 268.835,323.500 268.100 C 323.592 267.825,324.152 267.600,324.745 267.600 C 325.365 267.600,326.069 267.260,326.400 266.800 C 326.717 266.360,327.220 266.000,327.517 266.000 C 328.213 266.000,329.200 265.013,329.200 264.317 C 329.200 264.020,329.560 263.517,330.000 263.200 C 330.557 262.798,330.800 262.165,330.800 261.112 C 330.800 260.280,330.980 259.600,331.200 259.600 C 331.420 259.600,331.600 258.801,331.600 257.824 C 331.600 256.847,331.780 255.936,332.000 255.800 C 332.220 255.664,332.400 254.573,332.400 253.376 C 332.400 252.179,332.580 251.200,332.800 251.200 C 333.033 251.200,333.200 249.867,333.200 248.000 C 333.200 246.133,333.367 244.800,333.600 244.800 C 333.842 244.800,334.000 243.075,334.000 240.424 C 334.000 237.937,334.173 235.940,334.400 235.800 C 334.621 235.664,334.800 233.870,334.800 231.800 C 334.800 229.730,334.621 227.936,334.400 227.800 C 334.180 227.664,334.000 226.933,334.000 226.176 C 334.000 225.419,333.820 224.800,333.600 224.800 C 333.380 224.800,333.200 224.525,333.200 224.189 C 333.200 223.396,329.804 220.000,329.011 220.000 C 328.675 220.000,328.400 219.820,328.400 219.600 C 328.400 219.380,328.040 219.200,327.600 219.200 C 327.160 219.200,326.800 219.020,326.800 218.800 C 326.800 218.580,326.080 218.400,325.200 218.400 C 324.320 218.400,323.600 218.220,323.600 218.000 C 323.600 217.774,322.467 217.600,321.000 217.600 C 319.533 217.600,318.400 217.426,318.400 217.200 C 318.400 216.980,317.500 216.800,316.400 216.800 C 315.300 216.800,314.400 216.980,314.400 217.200 C 314.400 217.420,313.680 217.600,312.800 217.600 C 311.920 217.600,311.200 217.780,311.200 218.000 C 311.200 218.220,310.961 218.400,310.670 218.400 C 310.378 218.400,309.843 218.715,309.479 219.100 C 307.166 221.551,306.800 222.026,306.800 222.582 C 306.800 222.922,306.620 223.200,306.400 223.200 C 306.180 223.200,306.000 223.560,306.000 224.000 C 306.000 224.440,305.820 224.800,305.600 224.800 C 305.380 224.800,305.200 225.160,305.200 225.600 C 305.200 226.040,305.020 226.400,304.800 226.400 C 304.580 226.400,304.400 226.850,304.400 227.400 C 304.400 227.950,304.220 228.400,304.000 228.400 C 303.780 228.400,303.600 228.940,303.600 229.600 C 303.600 230.260,303.420 230.800,303.200 230.800 C 302.980 230.800,302.800 231.340,302.800 232.000 C 302.800 232.660,302.620 233.200,302.400 233.200 C 302.180 233.200,302.000 233.740,302.000 234.400 C 302.000 235.060,301.820 235.600,301.600 235.600 C 301.380 235.600,301.200 236.140,301.200 236.800 L 301.200 238.000 290.600 238.000 L 280.000 238.000 280.000 227.387 L 280.000 216.773 289.900 216.952 C 295.345 217.050,300.835 217.253,302.100 217.402 C 303.662 217.587,304.400 217.534,304.400 217.237 C 304.400 216.997,304.904 216.800,305.520 216.800 C 306.736 216.800,308.792 215.984,308.797 215.500 C 308.799 215.335,309.078 215.200,309.418 215.200 C 310.174 215.200,312.000 213.437,312.000 212.706 C 312.000 212.415,312.360 211.917,312.800 211.600 C 313.270 211.261,313.600 210.565,313.600 209.912 C 313.600 209.300,313.780 208.800,314.000 208.800 C 314.253 208.800,314.400 205.933,314.400 201.000 C 314.400 196.067,314.253 193.200,314.000 193.200 C 313.780 193.200,313.600 192.610,313.600 191.888 C 313.600 191.035,313.320 190.375,312.800 190.000 C 312.360 189.683,312.000 189.180,312.000 188.883 C 312.000 188.187,311.013 187.200,310.317 187.200 C 310.020 187.200,309.517 186.840,309.200 186.400 C 308.825 185.880,308.165 185.600,307.312 185.600 C 306.590 185.600,306.000 185.420,306.000 185.200 C 306.000 184.942,301.808 184.800,294.224 184.800 C 286.804 184.800,282.356 184.948,282.200 185.200 C 282.064 185.420,281.513 185.600,280.976 185.600 L 280.000 185.600 280.000 175.800 L 280.000 166.000 287.629 166.000 C 296.130 166.000,296.400 166.079,296.400 168.571 C 296.400 169.357,296.580 170.000,296.800 170.000 C 297.020 170.000,297.200 170.619,297.200 171.376 C 297.200 172.133,297.380 172.864,297.600 173.000 C 297.820 173.136,298.000 173.867,298.000 174.624 C 298.000 175.381,298.180 176.000,298.400 176.000 C 298.620 176.000,298.800 176.654,298.800 177.453 C 298.800 178.322,299.082 179.169,299.500 179.559 C 299.885 179.918,300.392 180.557,300.627 180.979 C 300.861 181.401,301.399 181.939,301.821 182.173 C 302.243 182.408,302.882 182.915,303.241 183.300 C 303.631 183.718,304.478 184.000,305.347 184.000 C 306.146 184.000,306.800 184.180,306.800 184.400 C 306.800 184.649,309.133 184.800,313.000 184.800 C 316.867 184.800,319.200 184.649,319.200 184.400 C 319.200 184.180,319.880 184.000,320.712 184.000 C 321.765 184.000,322.398 183.757,322.800 183.200 C 323.117 182.760,323.530 182.400,323.717 182.400 C 324.246 182.400,325.200 181.317,325.200 180.717 C 325.200 180.420,325.560 179.917,326.000 179.600 C 326.557 179.198,326.800 178.565,326.800 177.512 C 326.800 176.680,326.980 176.000,327.200 176.000 C 327.426 176.000,327.600 174.867,327.600 173.400 C 327.600 171.933,327.774 170.800,328.000 170.800 C 328.257 170.800,328.400 166.733,328.400 159.400 C 328.400 152.067,328.257 148.000,328.000 148.000 C 327.780 148.000,327.600 147.100,327.600 146.000 C 327.600 144.900,327.420 144.000,327.200 144.000 C 326.980 144.000,326.800 143.550,326.800 143.000 C 326.800 142.450,326.620 142.000,326.400 142.000 C 326.180 142.000,326.000 141.725,326.000 141.389 C 326.000 140.608,323.642 138.000,322.936 138.000 C 322.641 138.000,322.400 137.820,322.400 137.600 C 322.400 137.380,322.040 137.200,321.600 137.200 C 321.160 137.200,320.800 137.020,320.800 136.800 C 320.800 136.580,320.080 136.400,319.200 136.400 C 318.320 136.400,317.600 136.220,317.600 136.000 C 317.600 135.447,237.742 135.447,237.400 136.000 C 237.264 136.220,236.443 136.400,235.576 136.400 C 234.709 136.400,234.000 136.580,234.000 136.800 C 234.000 137.020,233.640 137.200,233.200 137.200 C 232.760 137.200,232.400 137.380,232.400 137.600 C 232.400 137.820,232.106 138.000,231.747 138.000 C 231.388 138.000,230.758 138.388,230.347 138.861 L 229.600 139.722 228.853 138.861 C 228.442 138.388,227.812 138.000,227.453 138.000 C 227.094 138.000,226.800 137.820,226.800 137.600 C 226.800 137.380,226.440 137.200,226.000 137.200 C 225.560 137.200,225.200 137.020,225.200 136.800 C 225.200 136.580,224.581 136.400,223.824 136.400 C 223.067 136.400,222.336 136.220,222.200 136.000 C 222.041 135.742,214.929 135.600,202.176 135.600 C 189.259 135.600,182.400 135.739,182.400 136.000 C 182.400 136.220,181.680 136.400,180.800 136.400 C 179.920 136.400,179.200 136.580,179.200 136.800 C 179.200 137.020,178.840 137.200,178.400 137.200 C 177.960 137.200,177.600 137.380,177.600 137.600 C 177.600 137.820,177.285 138.001,176.900 138.001 C 176.515 138.002,175.840 138.541,175.400 139.200 C 174.960 139.859,174.465 140.398,174.300 140.399 C 174.135 140.399,174.000 140.760,174.000 141.200 C 174.000 141.640,173.820 142.000,173.600 142.000 C 173.380 142.000,173.200 142.270,173.200 142.600 C 173.200 142.930,173.020 143.200,172.800 143.200 C 172.580 143.200,172.400 143.920,172.400 144.800 C 172.400 145.680,172.220 146.400,172.000 146.400 C 171.780 146.400,171.600 146.940,171.600 147.600 C 171.600 148.260,171.420 148.800,171.200 148.800 C 170.980 148.800,170.800 149.520,170.800 150.400 C 170.800 151.280,170.620 152.000,170.400 152.000 C 170.180 152.000,170.000 152.540,170.000 153.200 C 170.000 153.860,169.820 154.400,169.600 154.400 C 169.380 154.400,169.200 155.120,169.200 156.000 C 169.200 156.880,169.020 157.600,168.800 157.600 C 168.580 157.600,168.400 158.039,168.400 158.576 C 168.400 159.113,168.220 159.664,168.000 159.800 C 167.780 159.936,167.600 160.667,167.600 161.424 C 167.600 162.181,167.420 162.800,167.200 162.800 C 166.980 162.800,166.800 163.340,166.800 164.000 C 166.800 164.660,166.620 165.200,166.400 165.200 C 166.180 165.200,166.000 165.920,166.000 166.800 C 166.000 167.680,165.820 168.400,165.600 168.400 C 165.380 168.400,165.200 168.940,165.200 169.600 C 165.200 170.260,165.020 170.800,164.800 170.800 C 164.580 170.800,164.400 171.520,164.400 172.400 C 164.400 173.280,164.220 174.000,164.000 174.000 C 163.780 174.000,163.600 174.540,163.600 175.200 C 163.600 175.860,163.420 176.400,163.200 176.400 C 162.980 176.400,162.800 177.030,162.800 177.800 C 162.800 178.570,162.620 179.200,162.400 179.200 C 162.180 179.200,162.000 179.729,162.000 180.376 C 162.000 181.023,161.820 181.664,161.600 181.800 C 161.380 181.936,161.200 182.667,161.200 183.424 C 161.200 184.181,161.020 184.800,160.800 184.800 C 160.580 184.800,160.400 185.329,160.400 185.976 C 160.400 186.623,160.220 187.264,160.000 187.400 C 159.780 187.536,159.600 188.156,159.600 188.778 C 159.600 190.053,158.600 192.248,158.266 191.707 C 158.146 191.513,157.924 190.419,157.772 189.277 C 157.621 188.135,157.340 187.200,157.148 187.200 C 156.957 187.200,156.800 186.660,156.800 186.000 C 156.800 185.340,156.620 184.800,156.400 184.800 C 156.180 184.800,156.000 184.260,156.000 183.600 C 156.000 182.940,155.820 182.400,155.600 182.400 C 155.380 182.400,155.200 181.860,155.200 181.200 C 155.200 180.540,155.020 180.000,154.800 180.000 C 154.580 180.000,154.400 179.370,154.400 178.600 C 154.400 177.830,154.220 177.200,154.000 177.200 C 153.780 177.200,153.600 176.660,153.600 176.000 C 153.600 175.340,153.420 174.800,153.200 174.800 C 152.980 174.800,152.800 174.260,152.800 173.600 C 152.800 172.940,152.620 172.400,152.400 172.400 C 152.180 172.400,152.000 171.860,152.000 171.200 C 152.000 170.540,151.820 170.000,151.600 170.000 C 151.380 170.000,151.200 169.460,151.200 168.800 C 151.200 168.140,151.020 167.600,150.800 167.600 C 150.580 167.600,150.400 167.060,150.400 166.400 C 150.400 165.740,150.220 165.200,150.000 165.200 C 149.780 165.200,149.600 164.660,149.600 164.000 C 149.600 163.340,149.420 162.800,149.200 162.800 C 148.980 162.800,148.800 162.260,148.800 161.600 C 148.800 160.940,148.620 160.400,148.400 160.400 C 148.180 160.400,148.000 159.950,148.000 159.400 C 148.000 158.850,147.820 158.400,147.600 158.400 C 147.380 158.400,147.200 157.781,147.200 157.024 C 147.200 156.267,147.020 155.536,146.800 155.400 C 146.580 155.264,146.400 154.623,146.400 153.976 C 146.400 153.329,146.220 152.800,146.000 152.800 C 145.780 152.800,145.600 152.260,145.600 151.600 C 145.600 150.940,145.420 150.400,145.200 150.400 C 144.980 150.400,144.800 149.860,144.800 149.200 C 144.800 148.540,144.620 148.000,144.400 148.000 C 144.180 148.000,144.000 147.460,144.000 146.800 C 144.000 146.140,143.820 145.600,143.600 145.600 C 143.380 145.600,143.200 145.060,143.200 144.400 C 143.200 143.740,143.020 143.200,142.800 143.200 C 142.580 143.200,142.400 142.930,142.400 142.600 C 142.400 142.270,142.220 142.000,142.000 142.000 C 141.780 142.000,141.600 141.659,141.600 141.242 C 141.600 140.298,139.502 138.000,138.640 138.000 C 138.288 138.000,138.000 137.820,138.000 137.600 C 138.000 137.380,137.640 137.200,137.200 137.200 C 136.760 137.200,136.400 137.020,136.400 136.800 C 136.400 136.580,135.680 136.400,134.800 136.400 C 133.920 136.400,133.200 136.220,133.200 136.000 C 133.200 135.739,126.333 135.600,113.400 135.600 C 100.467 135.600,93.600 135.739,93.600 136.000 M230.400 162.000 C 230.717 162.440,231.257 162.800,231.600 162.800 C 231.943 162.800,232.483 163.160,232.800 163.600 C 233.202 164.157,233.835 164.400,234.888 164.400 C 235.720 164.400,236.400 164.580,236.400 164.800 C 236.400 165.020,237.120 165.200,238.000 165.200 C 238.880 165.200,239.600 165.380,239.600 165.600 C 239.600 165.820,240.230 166.000,241.000 166.000 L 242.400 166.000 242.400 202.400 C 242.400 238.164,242.386 238.800,241.624 238.800 C 241.197 238.800,240.736 238.980,240.600 239.200 C 240.464 239.420,239.643 239.600,238.776 239.600 C 237.909 239.600,237.200 239.780,237.200 240.000 C 237.200 240.220,236.480 240.400,235.600 240.400 C 234.720 240.400,234.000 240.220,234.000 240.000 C 234.000 239.780,233.280 239.600,232.400 239.600 C 231.520 239.600,230.800 239.420,230.800 239.200 C 230.800 238.980,230.260 238.800,229.600 238.800 C 228.447 238.800,228.400 238.731,228.400 237.024 C 228.400 236.047,228.220 235.136,228.000 235.000 C 227.780 234.864,227.600 233.683,227.600 232.376 C 227.600 231.059,227.422 230.000,227.200 230.000 C 226.980 230.000,226.800 229.010,226.800 227.800 C 226.800 226.590,226.620 225.600,226.400 225.600 C 226.175 225.600,226.000 224.475,226.000 223.024 C 226.000 221.607,225.847 220.353,225.660 220.237 C 225.473 220.121,225.200 218.314,225.052 216.219 C 224.905 214.125,224.608 211.947,224.392 211.380 C 224.177 210.812,224.000 209.470,224.000 208.398 C 224.000 207.325,223.820 206.336,223.600 206.200 C 223.380 206.064,223.200 204.919,223.200 203.656 C 223.200 202.393,223.036 201.189,222.835 200.980 C 222.635 200.771,222.361 199.520,222.227 198.200 C 222.093 196.880,221.882 194.765,221.756 193.500 C 221.631 192.235,221.365 191.200,221.164 191.200 C 220.964 191.200,220.800 190.120,220.800 188.800 C 220.800 187.480,220.635 186.400,220.434 186.400 C 220.233 186.400,219.966 185.275,219.841 183.900 C 219.255 177.452,219.104 176.400,218.764 176.400 C 218.564 176.400,218.400 175.320,218.400 174.000 C 218.400 172.667,218.222 171.600,218.000 171.600 C 217.779 171.600,217.600 170.560,217.600 169.280 C 217.600 168.004,217.384 166.744,217.120 166.480 C 216.747 166.107,216.964 166.000,218.096 166.000 C 218.897 166.000,219.664 165.820,219.800 165.600 C 219.936 165.380,220.757 165.200,221.624 165.200 C 222.491 165.200,223.200 165.020,223.200 164.800 C 223.200 164.580,223.830 164.400,224.600 164.400 C 225.370 164.400,226.000 164.220,226.000 164.000 C 226.000 163.780,226.315 163.595,226.700 163.588 C 227.085 163.581,227.850 163.047,228.400 162.400 C 229.597 160.992,229.664 160.979,230.400 162.000 " stroke="none" fill="#040404" fill-rule="evenodd"></path><path id="path1" d="" stroke="none" fill="#080404" fill-rule="evenodd"></path><path id="path2" d="" stroke="none" fill="#080404" fill-rule="evenodd"></path><path id="path3" d="" stroke="none" fill="#080404" fill-rule="evenodd"></path><path id="path4" d="" stroke="none" fill="#080404" fill-rule="evenodd"></path></g></svg>